<svg width="30" height="30" viewBox="0 0 30 30" fill="none" xmlns="http://www.w3.org/2000/svg">
<path d="M29.0625 10.3906C29.2344 10.3906 29.375 10.25 29.375 10.0781V7.73438C29.375 7.5625 29.2344 7.42188 29.0625 7.42188H22.6562V0.9375C22.6562 0.765625 22.5156 0.625 22.3438 0.625H19.8438C19.6719 0.625 19.5312 0.765625 19.5312 0.9375V7.42188H10.625V0.9375C10.625 0.765625 10.4844 0.625 10.3125 0.625H7.8125C7.64062 0.625 7.5 0.765625 7.5 0.9375V7.42188H0.9375C0.765625 7.42188 0.625 7.5625 0.625 7.73438V10.0781C0.625 10.25 0.765625 10.3906 0.9375 10.3906H7.5V19.6094H0.9375C0.765625 19.6094 0.625 19.75 0.625 19.9219V22.2656C0.625 22.4375 0.765625 22.5781 0.9375 22.5781H7.5V29.0625C7.5 29.2344 7.64062 29.375 7.8125 29.375H10.3125C10.4844 29.375 10.625 29.2344 10.625 29.0625V22.5781H19.5312V29.0625C19.5312 29.2344 19.6719 29.375 19.8438 29.375H22.3438C22.5156 29.375 22.6562 29.2344 22.6562 29.0625V22.5781H29.0625C29.2344 22.5781 29.375 22.4375 29.375 22.2656V19.9219C29.375 19.75 29.2344 19.6094 29.0625 19.6094H22.6562V10.3906H29.0625ZM19.5312 19.6094H10.625V10.3906H19.5312V19.6094Z" fill="white"/>
</svg>
