<svg width="41" height="40" viewBox="0 0 41 40" fill="none" xmlns="http://www.w3.org/2000/svg">
<path d="M27.0488 19.0234L29.5879 21.5625L26.4238 24.7266C26.1895 24.9609 26.1895 25.1953 26.4238 25.4297L27.0879 26.0938C27.3223 26.3281 27.5566 26.3281 27.791 26.0938L30.9551 22.9297L35.8379 27.8125L32.6738 30.9766C32.4395 31.2109 32.4395 31.4323 32.6738 31.6406L33.3379 32.3438C33.5723 32.5781 33.8066 32.5781 34.041 32.3438L37.2051 29.1797L39.666 31.6406C39.9004 31.875 40.0176 32.1615 40.0176 32.5C40.0176 32.8385 39.9004 33.138 39.666 33.3984L33.416 39.6484C33.1556 39.8828 32.8561 40 32.5176 40C32.179 40 31.8926 39.8828 31.6582 39.6484L19.041 27.0312L11.6973 34.375C11.2806 34.7917 10.7728 35 10.1738 35C9.57487 35 9.06706 34.7917 8.65039 34.375L5.68164 31.3672C5.26497 30.9505 5.05664 30.4492 5.05664 29.8633C5.05664 29.2773 5.26497 28.776 5.68164 28.3594L13.0254 21.0156L0.369141 8.35938C0.134766 8.125 0.0175781 7.83854 0.0175781 7.5C0.0175781 7.16146 0.134766 6.875 0.369141 6.64062L6.61914 0.351562C6.87956 0.117188 7.17904 0 7.51758 0C7.85612 0 8.14258 0.117188 8.37695 0.351562L10.8379 2.8125L7.67383 5.97656C7.43945 6.21094 7.43945 6.44531 7.67383 6.67969L8.33789 7.34375C8.57227 7.57812 8.80664 7.57812 9.04102 7.34375L12.2051 4.17969L17.0879 9.0625L13.9238 12.2266C13.6895 12.4609 13.6895 12.6953 13.9238 12.9297L14.5879 13.5938C14.8223 13.8281 15.0566 13.8281 15.291 13.5938L18.4551 10.4297L20.9941 13.0078L33.377 0.625C33.7936 0.208333 34.2949 0 34.8809 0C35.4668 0 35.9681 0.208333 36.3848 0.625L39.3926 3.63281C39.8092 4.04948 40.0176 4.55078 40.0176 5.13672C40.0176 5.72266 39.8092 6.22396 39.3926 6.64062L27.0488 19.0234ZM2.5957 31.5625C2.64779 31.7708 2.73893 31.9401 2.86914 32.0703L7.94727 37.1484C8.07747 37.2786 8.24674 37.3698 8.45508 37.4219C8.32487 37.6823 8.2207 37.8385 8.14258 37.8906L1.26758 40C0.642578 40 0.277995 39.9479 0.173828 39.8438C0.0696614 39.7396 0.0175781 39.375 0.0175781 38.75L2.12695 31.875C2.17904 31.8229 2.33529 31.7188 2.5957 31.5625Z" fill="white"/>
</svg>
