<svg width="34" height="34" viewBox="0 0 34 34" fill="none" xmlns="http://www.w3.org/2000/svg">
<path fill-rule="evenodd" clip-rule="evenodd" d="M16.9997 23.6666C18.7678 23.6666 20.4635 22.9642 21.7137 21.714C22.964 20.4637 23.6663 18.768 23.6663 16.9999C23.6663 15.2318 22.964 13.5361 21.7137 12.2859C20.4635 11.0356 18.7678 10.3333 16.9997 10.3333C15.2316 10.3333 13.5359 11.0356 12.2856 12.2859C11.0354 13.5361 10.333 15.2318 10.333 16.9999C10.333 18.768 11.0354 20.4637 12.2856 21.714C13.5359 22.9642 15.2316 23.6666 16.9997 23.6666ZM16.9997 33.6666C7.79468 33.6666 0.333008 26.2049 0.333008 16.9999C0.333008 7.79492 7.79468 0.333252 16.9997 0.333252C26.2047 0.333252 33.6663 7.79492 33.6663 16.9999C33.6663 26.2049 26.2047 33.6666 16.9997 33.6666ZM16.9997 3.66659H20.333V6.99992H16.9997V3.66659ZM26.9997 11.9999H30.333V15.3333H26.9997V11.9999ZM5.33301 20.3333C5.77504 20.3333 6.19896 20.1577 6.51152 19.8451C6.82408 19.5325 6.99967 19.1086 6.99967 18.6666C6.99967 18.2246 6.82408 17.8006 6.51152 17.4881C6.19896 17.1755 5.77504 16.9999 5.33301 16.9999C4.89098 16.9999 4.46706 17.1755 4.1545 17.4881C3.84194 17.8006 3.66634 18.2246 3.66634 18.6666C3.66634 19.1086 3.84194 19.5325 4.1545 19.8451C4.46706 20.1577 4.89098 20.3333 5.33301 20.3333ZM11.9997 8.66659C12.4417 8.66659 12.8656 8.49099 13.1782 8.17843C13.4907 7.86587 13.6663 7.44195 13.6663 6.99992C13.6663 6.55789 13.4907 6.13397 13.1782 5.82141C12.8656 5.50885 12.4417 5.33325 11.9997 5.33325C11.5576 5.33325 11.1337 5.50885 10.8212 5.82141C10.5086 6.13397 10.333 6.55789 10.333 6.99992C10.333 7.44195 10.5086 7.86587 10.8212 8.17843C11.1337 8.49099 11.5576 8.66659 11.9997 8.66659ZM25.333 10.3333C25.775 10.3333 26.199 10.1577 26.5115 9.8451C26.8241 9.53254 26.9997 9.10861 26.9997 8.66659C26.9997 8.22456 26.8241 7.80064 26.5115 7.48807C26.199 7.17551 25.775 6.99992 25.333 6.99992C24.891 6.99992 24.4671 7.17551 24.1545 7.48807C23.8419 7.80064 23.6663 8.22456 23.6663 8.66659C23.6663 9.10861 23.8419 9.53254 24.1545 9.8451C24.4671 10.1577 24.891 10.3333 25.333 10.3333ZM28.6663 21.9999C29.1084 21.9999 29.5323 21.8243 29.8449 21.5118C30.1574 21.1992 30.333 20.7753 30.333 20.3333C30.333 19.8912 30.1574 19.4673 29.8449 19.1547C29.5323 18.8422 29.1084 18.6666 28.6663 18.6666C28.2243 18.6666 27.8004 18.8422 27.4878 19.1547C27.1753 19.4673 26.9997 19.8912 26.9997 20.3333C26.9997 20.7753 27.1753 21.1992 27.4878 21.5118C27.8004 21.8243 28.2243 21.9999 28.6663 21.9999ZM21.9997 25.3333H25.333V28.6666H21.9997V25.3333ZM15.333 30.3333C15.775 30.3333 16.199 30.1577 16.5115 29.8451C16.8241 29.5325 16.9997 29.1086 16.9997 28.6666C16.9997 28.2246 16.8241 27.8006 16.5115 27.4881C16.199 27.1755 15.775 26.9999 15.333 26.9999C14.891 26.9999 14.4671 27.1755 14.1545 27.4881C13.8419 27.8006 13.6663 28.2246 13.6663 28.6666C13.6663 29.1086 13.8419 29.5325 14.1545 29.8451C14.4671 30.1577 14.891 30.3333 15.333 30.3333ZM6.99967 23.6666H10.333V26.9999H6.99967V23.6666ZM5.33301 10.3333H8.66634V13.6666H5.33301V10.3333Z" fill="white"/>
</svg>
