<svg width="39" height="40" viewBox="0 0 39 40" fill="none" xmlns="http://www.w3.org/2000/svg">
<path d="M38.1755 0.759143C38.0595 0.470167 37.8365 0.237049 37.553 0.108287C37.2694 -0.0204754 36.9472 -0.0349685 36.6532 0.0678226C36.3593 0.170614 36.1163 0.382775 35.9748 0.660169C35.8333 0.937563 35.8042 1.25883 35.8935 1.55714C37.7515 6.89714 34.0635 10.8851 31.2515 13.0211L30.1155 11.3931C29.7335 10.8471 28.8795 10.3931 28.2155 10.3851L21.8395 10.4131C21.0606 10.4367 20.3026 10.6702 19.6455 11.0891L0.857509 24.2631C0.420499 24.5707 0.123148 25.0388 0.0305605 25.5651C-0.0620271 26.0914 0.0576935 26.6329 0.36351 27.0711L8.90151 39.2871C9.54151 40.1971 10.5635 40.0871 11.4755 39.4511L30.2635 26.2751C30.8035 25.8931 31.4275 25.0691 31.6475 24.4391L33.6435 18.1491C33.8635 17.5211 33.7295 16.5631 33.3475 16.0171L32.6555 15.0251C36.4315 12.1311 40.3515 7.01714 38.1755 0.759143ZM29.4335 19.4751C29.0874 19.7174 28.6969 19.8891 28.2844 19.9805C27.8719 20.0718 27.4455 20.0809 27.0294 20.0074C26.6134 19.9338 26.2159 19.779 25.8597 19.5518C25.5035 19.3246 25.1956 19.0294 24.9535 18.6831C24.4634 17.9825 24.2713 17.1159 24.4194 16.2737C24.5675 15.4316 25.0437 14.6826 25.7435 14.1911C26.2921 13.8068 26.9471 13.6034 27.617 13.6095C28.2868 13.6156 28.938 13.8309 29.4795 14.2251C28.9355 14.5531 28.5615 14.7451 28.4915 14.7751C28.2436 14.8934 28.0432 15.0923 27.9231 15.3393C27.803 15.5863 27.7704 15.8668 27.8306 16.1348C27.8908 16.4028 28.0402 16.6424 28.2544 16.8143C28.4686 16.9862 28.7348 17.0803 29.0095 17.0811C29.1815 17.0811 29.3575 17.0411 29.5235 16.9631C29.9115 16.7791 30.3275 16.5611 30.7615 16.3031C30.8613 16.9033 30.7897 17.5194 30.5547 18.0806C30.3198 18.6417 29.9311 19.1251 29.4335 19.4751Z" fill="white"/>
</svg>
