<svg width="48" height="48" viewBox="0 0 48 48" fill="none" xmlns="http://www.w3.org/2000/svg">
<g clip-path="url(#clip0)">
<path d="M47.8388 41.7994L40.9923 14.4122C40.636 12.9882 39.451 12.001 38.0982 12.001H32.4498C32.7845 11.0588 33.001 10.0585 33.001 9.00098C33.001 4.03035 28.9717 0.000976562 24.001 0.000976562C19.0304 0.000976562 15.001 4.03035 15.001 9.00098C15.001 10.0585 15.2167 11.0588 15.5523 12.001H9.90384C8.55103 12.001 7.36509 12.9891 7.00978 14.4122L0.161339 41.7994C-0.619598 44.9222 1.53571 48 4.5029 48H43.4982C46.4645 48 48.6198 44.9222 47.8388 41.7994ZM24.0001 12C22.3463 12 21.0001 10.6538 21.0001 9.00004C21.0001 7.34629 22.3463 6.00004 24.0001 6.00004C25.6538 6.00004 27.0001 7.34629 27.0001 9.00004C27.0001 10.6538 25.6538 12 24.0001 12Z" fill="#77D586"/>
</g>
<defs>
<clipPath id="clip0">
<rect width="48" height="48" fill="white"/>
</clipPath>
</defs>
</svg>
