<svg width="170" height="170" viewBox="0 0 170 170" fill="none" xmlns="http://www.w3.org/2000/svg">
<path fill-rule="evenodd" clip-rule="evenodd" d="M88.4494 52.9973C88.5657 53.2356 88.9492 53.2893 89.1821 53.2941C90.6186 53.3223 92.3825 52.8188 93.6888 52.218C94.0682 52.0436 94.8961 51.6159 95.0995 51.2058C95.1457 51.1123 95.1253 51.0827 95.1358 51.0032C94.7822 50.4816 93.6545 49.1529 93.1931 48.7571C93.17 48.7374 89.0128 49.6748 88.8333 50.4935C88.8108 50.5962 88.7734 50.6904 88.7571 50.7927L88.5871 51.7298C88.5558 51.9559 88.415 52.8215 88.4494 52.9973Z" fill="#2B2A29"/>
<path fill-rule="evenodd" clip-rule="evenodd" d="M95.6149 56.5991C95.4823 55.9877 95.5829 55.543 95.8005 55.1364C96.0144 54.7379 96.2388 54.1728 96.6185 53.9868C96.9364 54.6607 97.2584 54.8909 96.8497 55.6277C96.6223 56.0384 96.2146 56.4637 95.6149 56.5991ZM95.2585 50.7786C95.3837 50.9704 95.5469 51.1377 95.675 51.324C96.0456 51.8629 94.9886 52.4854 94.617 52.6993C93.2784 53.4697 91.1782 54.0769 89.6502 54.0878C89.3558 54.0899 88.822 54.0528 88.5704 53.8903C88.3042 53.7186 88.3627 53.5666 88.3776 53.3442C88.3888 53.1807 88.3963 52.9604 88.4201 52.8132C87.9968 53.0243 87.1985 53.7975 87.138 54.3595C87.1233 54.4945 87.1393 54.6165 87.1825 54.7267C86.7051 54.9807 86.2414 55.221 85.8045 55.4767C84.7144 56.1146 84.5795 56.2472 83.1634 56.4328L79.6926 56.85C79.3288 54.4394 76.9114 54.6128 75.3644 56.0105C74.152 57.1064 73.5781 58.7479 72.9933 60.5873C72.7328 61.4063 72.4455 62.4005 72.2215 63.2627C71.8801 64.5765 71.7642 64.7281 72.2881 66.1347C73.0688 68.2322 73.9014 69.8234 72.4979 71.523L72.5407 71.878C72.7373 72.115 73.7664 74.7479 73.9698 75.2641C74.3669 76.2725 74.1527 76.282 75.3706 76.1198C76.0781 76.0253 76.9971 75.9838 77.5615 75.752C77.6509 75.2641 77.2229 74.274 76.7591 73.9367C75.9931 73.3801 75.8765 74.6442 75.325 72.6512C76.8077 71.7192 78.4785 68.6405 79.0395 66.8943L87.531 68.6048C87.3542 69.704 86.8918 70.6084 87.4141 71.7709C87.6038 72.1932 87.8866 72.7096 88.0991 73.1231C88.279 73.4736 88.5367 74.1982 88.8961 74.377C89.4017 74.5946 91.9857 74.1815 92.4614 73.9228C92.5158 73.3029 92.1873 73.0065 91.9014 72.5821C91.3254 71.727 91.336 72.1619 90.8474 71.9654C90.2592 71.7287 90.8515 70.401 91.1887 69.4235C91.4859 68.5606 91.6702 67.4906 92.1822 66.9245L93.9002 64.8968C94.7931 63.9288 95.2898 63.0264 95.4751 62.0234C95.5965 61.3666 95.2762 60.6128 95.0957 59.6417C95.0331 58.9876 95.9736 57.7044 96.0888 57.4593C96.2037 57.2152 96.3248 57.2981 96.5699 57.1968C97.1275 56.9673 97.7259 56.0666 97.8687 55.4757C98.1781 54.1963 97.5277 53.722 96.5573 53.0879C96.5995 53.0508 96.641 53.0138 96.6811 52.976C97.1489 52.5367 97.679 51.8091 97.0456 51.2461C96.6716 50.9136 95.6281 50.7177 95.2585 50.7786ZM87.8516 55.2904C88.4633 55.5236 89.4112 55.5665 90.4826 55.4458C90.8447 55.9874 91.3125 56.3862 92.1601 56.1152C92.679 55.949 92.9173 55.4655 92.9972 54.914C93.8856 54.6407 94.7519 54.2799 95.4942 53.8441C94.961 55.0086 94.6112 54.8365 94.6941 56.7626C93.9053 56.7262 93.6357 56.3706 93.157 56.8704C93.2342 57.6966 94.2328 57.6772 95.0284 57.6235C95.0358 57.9886 94.2623 58.7571 94.1695 59.347C94.0203 60.2918 94.6999 61.2666 94.5962 61.9265C94.3902 63.2328 93.7306 64.1569 92.6178 64.9825C92.7072 64.4378 92.9557 64.295 92.6385 63.8652C92.0105 63.5817 91.9208 64.0342 91.7875 64.5408L90.6655 68.138C89.301 72.1058 89.4796 71.3785 90.2418 72.9062C90.9548 73.0411 90.9463 72.6569 91.2547 73.3128L89.3136 73.5212C88.7353 72.4669 87.8751 71.2565 88.1617 69.9971C88.312 69.3413 88.9944 66.8514 88.6897 66.251C87.8486 65.9957 87.821 67.1109 87.7707 67.7348L79.2622 65.9827C79.2894 65.1089 79.471 64.0631 79.1109 63.2631L78.4469 63.3607C78.2857 64.0961 78.5108 65.2715 78.2449 66.355C77.6139 68.9278 76.1512 70.6812 74.3176 72.4138C74.3975 73.0337 74.9411 74.3321 75.3036 74.6752C76.0897 74.9961 76.0298 74.2662 76.4161 75.092L74.9479 75.2668C73.201 71.0549 73.3775 72.5036 73.9997 70.5574C74.5845 68.7289 73.5505 67.1105 72.9596 65.416C72.5074 64.1195 74.4842 58.0349 75.9411 56.6824C76.6459 56.0279 78.0722 55.3724 78.6784 56.4825C79.4179 57.8363 77.4418 58.4245 76.5572 58.1117C77.3657 57.6925 78.861 57.668 78.302 56.3957C77.4578 56.2577 77.8617 56.5062 77.3126 56.8888C77.0036 57.104 76.5317 57.1291 76.1515 57.2947C75.3621 57.6391 75.4471 58.7428 76.1515 58.9951C76.6853 59.1858 78.2762 58.9594 78.7678 58.6826C79.9038 58.0437 78.7243 57.8673 80.7351 57.63C82.7639 57.3903 84.3309 57.3777 85.9215 56.44C86.5467 56.0711 87.2002 55.6739 87.8516 55.2904ZM91.2629 55.2972C91.3761 55.2731 92.0948 55.1408 92.2087 55.1136C92.119 55.5179 91.7083 55.7175 91.2629 55.2972Z" fill="#2B2A29"/>
<path fill-rule="evenodd" clip-rule="evenodd" d="M96.494 53.6007C96.1387 53.6279 95.886 53.9227 95.9296 54.2586C95.9731 54.5945 96.2968 54.8444 96.652 54.8172C97.0077 54.7897 97.2603 54.4949 97.2164 54.159C97.1729 53.8234 96.8492 53.5732 96.494 53.6007Z" fill="#2B2A29"/>
<path fill-rule="evenodd" clip-rule="evenodd" d="M20.4553 100.259L149.544 85.0039V100.094L20.4553 115.349V100.259ZM35.5543 102.172V102.149L32.8109 102.473V102.497C33.1118 102.659 33.3433 103.226 33.3433 104.158V106.42C33.0883 106.497 32.8336 106.539 32.6602 106.559C31.3404 106.715 30.7501 106.213 30.7501 105.095V104.465C30.7501 103.509 31.0048 102.908 31.2826 102.677V102.654L28.5507 102.977V103C28.8403 103.164 29.1644 103.685 29.1644 104.653V105.107C29.1644 106.984 29.9168 108.06 32.2087 107.79C32.4865 107.757 32.9496 107.679 33.3433 107.562V108.763C33.3433 109.719 33.0074 110.33 32.718 110.562V110.585L35.5543 110.25V110.227C35.2531 110.064 34.9291 109.543 34.9291 108.575V103.971C34.9291 103.015 35.2646 102.404 35.5543 102.172ZM49.5103 106.363C49.0125 107.133 48.2023 107.613 47.1833 107.734L45.9216 107.883V105.26L46.9868 105.134C47.6349 105.057 48.0517 105.218 48.2486 105.719L48.2717 105.717L48.6073 103.719C48.0864 103.85 47.7624 103.9 46.8015 104.014L45.9216 104.118V102.066L47.4499 101.886C48.3526 101.779 48.9891 101.995 49.2672 102.533L49.2903 102.519L49.0935 100.456C48.8388 100.544 48.3295 100.639 47.8664 100.694L43.7109 101.185V101.208C44.0118 101.371 44.3358 101.892 44.3358 102.86V107.464C44.3358 108.42 43.9999 109.031 43.7109 109.263V109.286L47.797 108.804C48.4801 108.723 48.781 108.71 49.2091 108.73L49.5334 106.372L49.5103 106.363ZM60.6069 99.1884L57.4466 99.562V99.5852C57.7478 99.7477 58.0718 100.269 58.0718 101.19V105.841C58.0718 106.797 57.7359 107.408 57.4466 107.64V107.663L60.2829 107.328V107.305C59.9816 107.142 59.6576 106.621 59.6576 105.7V104.732L60.6069 104.62C62.4473 104.403 63.5241 103.378 63.5241 101.478C63.5241 99.7997 62.4473 98.9711 60.6069 99.1884ZM60.3407 103.498L59.6576 103.567V100.455L60.3407 100.374C61.394 100.25 61.8802 100.682 61.8802 101.754C61.8802 102.756 61.4055 103.384 60.3407 103.498ZM77.9547 97.1616V97.1385L75.2112 97.4625V97.486C75.5121 97.6485 75.7437 98.2156 75.7437 99.1483V101.41C75.489 101.486 75.2344 101.528 75.061 101.549C73.7411 101.704 73.1508 101.203 73.1508 100.084V99.4546C73.1508 98.4989 73.4055 97.8974 73.6833 97.6665V97.6431L70.9514 97.9661V97.9895C71.2407 98.1534 71.5647 98.6743 71.5647 99.6419V100.097C71.5647 101.973 72.3172 103.05 74.6091 102.779C74.8872 102.746 75.3503 102.668 75.7437 102.552V103.753C75.7437 104.708 75.4081 105.319 75.1188 105.551V105.575L77.9547 105.24V105.216C77.6538 105.054 77.3298 104.532 77.3298 103.565V98.9606C77.3298 98.0048 77.6654 97.3942 77.9547 97.1616ZM86.146 104.272L88.4495 103.999C88.5766 103.67 88.7966 103.224 89.0285 102.824L90.7764 99.7732C91.2161 99.0099 91.6213 98.1347 91.9454 97.1521L91.9919 97.1463C91.772 98.1402 91.6676 99.05 91.6676 99.7725V101.871C91.6676 102.826 91.332 103.437 91.0427 103.67V103.693L93.8902 103.356V103.333C93.5893 103.171 93.2649 102.65 93.2649 101.682V97.0195C93.2649 96.2736 93.6817 95.4433 93.948 95.2719V95.2485L91.3898 95.5511C91.3667 95.7867 91.2973 96.0396 90.9152 96.7261L89.2481 99.7089C88.9357 100.27 88.4726 101.141 88.1255 102.184L88.0792 102.19C88.2642 101.13 88.3339 100.376 88.3339 99.712V97.6604C88.3339 96.7047 88.6695 96.0937 88.9357 95.8642V95.8407L86.1113 96.1746V96.1981C86.4122 96.3606 86.7362 96.8818 86.7362 97.8491V102.453C86.7362 103.409 86.4122 104.019 86.146 104.249V104.272ZM101.184 102.495L103.743 102.192V102.169C103.581 102.048 103.511 101.59 103.765 100.733L104.564 98.0273C104.808 97.1943 105.051 96.3728 105.155 95.5446L105.201 95.5388C105.328 96.3399 105.56 97.1052 105.803 97.8807L106.602 100.397C106.856 101.195 106.787 101.658 106.625 101.828V101.852L109.299 101.536V101.512C108.975 101.271 108.466 100.644 108.165 99.7582L106.636 95.2879C106.405 94.6157 106.486 94.0466 106.787 93.7548V93.7314L103.627 94.1047V94.1282C103.94 94.3709 104.055 94.9401 103.824 95.6667L102.319 100.449C102.018 101.406 101.509 102.153 101.184 102.471V102.495ZM116.148 100.726L118.706 100.424V100.401C118.544 100.28 118.474 99.8218 118.729 98.9643L119.528 96.2589C119.771 95.4259 120.014 94.6045 120.118 93.7762L120.164 93.7708C120.292 94.5715 120.523 95.3369 120.766 96.1124L121.565 98.6291C121.82 99.4264 121.75 99.8895 121.588 100.06V100.083L124.262 99.7674V99.7439C123.938 99.5025 123.429 98.8752 123.128 97.9899L121.599 93.5196C121.368 92.8474 121.449 92.2782 121.75 91.9865V91.963L118.59 92.3364V92.3598C118.903 92.6026 119.018 93.1717 118.787 93.8987L117.282 98.6808C116.981 99.6372 116.472 100.385 116.148 100.703V100.726ZM134.832 93.1915L133.744 93.32V92.2942C133.744 91.3385 134.08 90.7275 134.369 90.4952V90.4718L131.533 90.807V90.8305C131.834 90.993 132.158 91.5142 132.158 92.435V97.0858C132.158 98.0416 131.823 98.6525 131.533 98.8851V98.9082L134.936 98.506C136.453 98.3268 137.715 97.2337 137.715 95.4035C137.715 93.7484 136.522 92.9919 134.832 93.1915ZM134.415 97.402L133.744 97.4812V94.4739L134.415 94.3947C135.538 94.2621 136.059 94.6783 136.059 95.6925C136.059 96.6714 135.538 97.2694 134.415 97.402Z" fill="#2B2A29"/>
<path fill-rule="evenodd" clip-rule="evenodd" d="M20.4553 97.8307L34.1987 96.2314V88.2764L20.4553 97.8307Z" fill="#2B2A29"/>
<path fill-rule="evenodd" clip-rule="evenodd" d="M149.545 102.614L135.802 104.214V112.169L149.545 102.614Z" fill="#2B2A29"/>
<path d="M20.383 98.4038L149.472 83.1494L149.617 84.3795L20.5282 99.634L20.383 98.4038Z" fill="#2B2A29"/>
<path d="M20.383 116.028L149.472 100.773L149.617 102.004L20.5282 117.258L20.383 116.028Z" fill="#2B2A29"/>
<path d="M63.477 89.7984C63.477 89.8538 63.4668 89.8919 63.4485 89.915C63.4301 89.9409 63.3907 89.9562 63.3308 89.9633L63.0038 90.0017C62.9123 90.0126 62.831 89.9905 62.7634 89.9354C62.6954 89.8803 62.661 89.8052 62.661 89.713V85.713L61.7196 85.8241V89.8164C61.7196 89.914 61.6832 90 61.6125 90.0714C61.5421 90.1431 61.4581 90.1843 61.3667 90.1952L61.0372 90.2343C60.977 90.2414 60.9352 90.2356 60.9168 90.2142C60.8985 90.1952 60.8879 90.1571 60.8879 90.0966V81.0845C60.8879 81.024 60.8985 80.9832 60.9168 80.9601C60.9352 80.9343 60.977 80.9186 61.0372 80.9115L61.3667 80.8727C61.4765 80.8598 61.5628 80.8812 61.6254 80.9394C61.6883 80.9978 61.7196 81.0835 61.7196 81.1916V85.1288L62.661 85.0177V81.0567C62.661 80.9594 62.6978 80.8734 62.7685 80.802C62.8392 80.7303 62.9201 80.6891 63.0116 80.6782L63.3387 80.6395C63.3988 80.6323 63.4352 80.6388 63.4536 80.6602C63.4696 80.6793 63.477 80.718 63.477 80.7785V89.7984ZM71.5065 80.683C71.5065 80.5354 71.5327 80.3903 71.5847 80.2471C71.637 80.104 71.7156 79.971 71.8254 79.8527C71.9352 79.7317 72.0712 79.6287 72.2361 79.5433C72.398 79.4583 72.5918 79.4039 72.8165 79.3771C73.0416 79.3505 73.235 79.3594 73.4023 79.4056C73.5699 79.4515 73.7059 79.5222 73.8103 79.6181C73.9178 79.7106 73.9963 79.8252 74.0483 79.9557C74.1007 80.0866 74.1269 80.2257 74.1269 80.3733V87.6785C74.1269 87.805 74.1034 87.9396 74.0561 88.0821C74.0119 88.2242 73.9334 88.3575 73.8287 88.4829C73.7216 88.606 73.5856 88.7145 73.4183 88.8053C73.2507 88.896 73.0521 88.9566 72.8165 88.9844C72.5812 89.012 72.3827 88.9987 72.215 88.9474C72.0478 88.896 71.9118 88.8226 71.8098 88.724C71.705 88.6285 71.6292 88.5135 71.5796 88.3826C71.5299 88.2514 71.5065 88.1201 71.5065 87.9882V80.683ZM72.3381 87.8716C72.3381 87.9848 72.3748 88.0807 72.4479 88.1589C72.521 88.2344 72.6492 88.2616 72.8298 88.2402C73.0025 88.2198 73.1279 88.1627 73.201 88.0698C73.2741 87.9743 73.3109 87.8699 73.3109 87.7567V80.4882C73.3109 80.375 73.2718 80.2794 73.1959 80.2016C73.1201 80.1261 72.9947 80.0989 72.8192 80.1196C72.6414 80.1407 72.5159 80.2002 72.4452 80.2954C72.3748 80.3906 72.3381 80.495 72.3381 80.6031V87.8716ZM82.313 87.72C82.2529 87.7271 82.2138 87.721 82.1954 87.6996C82.177 87.6809 82.1665 87.6397 82.1665 87.5819V78.5383C82.1665 78.4778 82.177 78.4373 82.1954 78.4138C82.2138 78.388 82.2529 78.373 82.313 78.3659L83.482 78.2275C83.7305 78.1983 83.9396 78.2105 84.1072 78.2642C84.2718 78.3186 84.4027 78.3979 84.502 78.5022C84.5989 78.6066 84.6692 78.7246 84.7114 78.8565C84.7505 78.9888 84.7712 79.1153 84.7712 79.2339V81.5803C84.7712 81.82 84.7505 82.0382 84.7114 82.2327C84.6692 82.4272 84.5676 82.5816 84.4054 82.7009C84.4863 82.7414 84.5516 82.7995 84.5989 82.8808C84.6485 82.959 84.6849 83.047 84.7114 83.1466C84.7349 83.2463 84.7505 83.35 84.7583 83.4598C84.7661 83.5665 84.7712 83.6716 84.7712 83.7688V86.276C84.7712 86.3916 84.7505 86.5181 84.7114 86.6568C84.6692 86.7962 84.5989 86.9312 84.4969 87.059C84.3972 87.1841 84.2612 87.2974 84.0889 87.3943C83.9189 87.4908 83.7016 87.5558 83.4401 87.5867L82.313 87.72ZM82.9981 83.2303V86.9016L83.469 86.8458C83.6418 86.8254 83.7672 86.7659 83.843 86.67C83.9189 86.5718 83.9552 86.4698 83.9552 86.3593V83.8654C83.9552 83.7889 83.9501 83.708 83.9423 83.622C83.9345 83.5332 83.9161 83.4564 83.8872 83.3836C83.856 83.3136 83.8141 83.2578 83.7567 83.2146C83.6992 83.1711 83.6207 83.1568 83.516 83.1694L82.9981 83.2303ZM82.9981 79.0143V82.5193L83.516 82.4581C83.6207 82.4459 83.6992 82.4129 83.7567 82.3561C83.8141 82.299 83.856 82.2337 83.8872 82.1562C83.9161 82.0763 83.9345 81.9954 83.9423 81.905C83.9501 81.8172 83.9552 81.7346 83.9552 81.6585V79.3278C83.9552 79.2196 83.9189 79.1241 83.843 79.0459C83.7672 78.9653 83.6418 78.9381 83.469 78.9585L82.9981 79.0143ZM96.8593 85.7956C96.8593 85.9326 96.794 86.0087 96.6607 86.0247L96.2265 86.0757C96.0929 86.0917 96.0276 86.0309 96.0276 85.8938V77.1137C96.0276 77.0164 96.0643 76.9304 96.1351 76.859C96.2054 76.7873 96.2891 76.7458 96.3809 76.7349L96.7103 76.6958C96.7705 76.689 96.8123 76.6945 96.8307 76.7108C96.8491 76.7271 96.8593 76.7652 96.8593 76.826V85.7956ZM93.3052 77.0984C93.3967 77.0875 93.4803 77.1093 93.5511 77.164C93.6214 77.2191 93.6582 77.2963 93.6582 77.3938V80.3274L94.1291 80.2719C94.5371 80.2237 94.856 80.294 95.0862 80.4855C95.3163 80.6742 95.4313 80.937 95.4313 81.2715V85.0163C95.4313 85.3509 95.3191 85.6405 95.0913 85.8833C94.8665 86.1288 94.55 86.274 94.142 86.3222L92.9731 86.4603C92.9129 86.4674 92.8738 86.4616 92.8554 86.4399C92.8371 86.4212 92.8265 86.3828 92.8265 86.3222V77.3105C92.8265 77.2497 92.8371 77.2089 92.8554 77.1858C92.8738 77.1599 92.9156 77.1443 92.9758 77.1375L93.3052 77.0984ZM94.1291 85.5838C94.3018 85.5634 94.4272 85.5035 94.5031 85.408C94.5789 85.3094 94.6153 85.2077 94.6153 85.0969V81.3599C94.6153 81.2573 94.5813 81.1638 94.5136 81.0849C94.4456 81.0063 94.3331 80.9747 94.176 80.9934L93.6582 81.0543V85.6395L94.1291 85.5838ZM104.894 75.8764C104.894 75.8213 104.904 75.7829 104.92 75.7601C104.936 75.7346 104.975 75.7193 105.033 75.7125L105.362 75.6738C105.459 75.6622 105.545 75.6836 105.618 75.738C105.691 75.7928 105.723 75.8706 105.712 75.9692L105.589 81.941L106.586 76.2191C106.63 75.99 106.685 75.8122 106.753 75.6857C106.821 75.5592 106.908 75.4909 107.012 75.4786L107.339 75.4399C107.405 75.4324 107.444 75.4382 107.462 75.4599C107.478 75.479 107.486 75.515 107.486 75.5704V84.5981C107.486 84.6454 107.475 84.6862 107.457 84.712C107.438 84.7378 107.399 84.7555 107.339 84.7627L107.02 84.8004C106.915 84.8126 106.829 84.7939 106.758 84.7419C106.688 84.6896 106.654 84.6066 106.659 84.4981L106.79 78.4992L105.778 84.3047C105.762 84.3907 105.744 84.472 105.725 84.5505C105.704 84.6294 105.679 84.7008 105.647 84.765C105.613 84.8296 105.574 84.8817 105.529 84.9238C105.482 84.9636 105.422 84.9891 105.351 84.9976L105.043 85.034C104.983 85.0411 104.943 85.0326 104.923 85.0115C104.904 84.9898 104.894 84.9517 104.894 84.9041V75.8764ZM107.127 72.9844C107.127 73.6742 107.051 74.1863 106.905 74.5171C106.758 74.8476 106.507 75.0325 106.155 75.0744C105.783 75.1182 105.532 74.99 105.398 74.6898C105.265 74.392 105.197 73.8973 105.197 73.2125C105.197 73.1836 105.205 73.1588 105.221 73.1333C105.239 73.1075 105.262 73.0939 105.296 73.0901L105.516 73.0639C105.561 73.0588 105.605 73.0694 105.65 73.0928C105.697 73.119 105.725 73.1683 105.736 73.2435C105.765 73.714 105.807 74.0622 105.867 74.2869C105.927 74.5113 106.024 74.6157 106.155 74.6004C106.371 74.5746 106.513 74.0945 106.578 73.1625C106.589 73.0769 106.617 73.0157 106.665 72.9786C106.711 72.9385 106.758 72.9174 106.808 72.9113L107.028 72.8854C107.054 72.8824 107.078 72.8899 107.098 72.9062C107.117 72.9249 107.127 72.95 107.127 72.9844Z" fill="#2B2A29"/>
<path d="M43.0194 117.732L41.3895 117.926V120.758L41.6207 120.731V118.12L42.7879 117.982V120.593L43.0194 120.565V117.732ZM46.4589 117.265C46.1522 117.301 45.8945 117.478 45.7544 117.749L45.7275 117.411L45.5337 117.434V121.242L45.7598 121.215V119.931C45.9101 120.152 46.1739 120.25 46.4429 120.218C46.9485 120.158 47.2874 119.755 47.2874 119.133V118.168C47.2874 117.529 46.9321 117.209 46.4589 117.265ZM47.0562 119.16C47.0562 119.664 46.8033 119.959 46.3943 120.007C46.0233 120.052 45.7598 119.763 45.7598 119.336V118.382C45.7598 117.841 46.0662 117.528 46.4106 117.487C46.7978 117.441 47.0562 117.676 47.0562 118.196V119.16ZM50.5338 116.781C50.0278 116.841 49.7055 117.194 49.6783 117.652L49.915 117.624C49.9258 117.297 50.1679 117.047 50.5283 117.004C50.9101 116.959 51.1199 117.178 51.1199 117.611V117.968L50.5392 118.037C49.9313 118.109 49.5923 118.453 49.5923 118.983C49.5923 119.53 49.9367 119.804 50.4314 119.745C50.7704 119.705 51.0016 119.526 51.1254 119.3L51.1468 119.601L51.3511 119.577V117.578C51.3511 117.02 51.0444 116.721 50.5338 116.781ZM50.4637 119.514C50.0819 119.559 49.8289 119.367 49.8289 118.961C49.8289 118.56 50.071 118.309 50.5338 118.254L51.1199 118.185V118.781C51.1199 119.182 50.8833 119.464 50.4637 119.514ZM55.0711 117.624C55.2972 117.462 55.426 117.224 55.426 116.992C55.426 116.547 55.1248 116.302 54.6087 116.363L53.8661 116.451V119.278L54.6678 119.183C55.2485 119.114 55.5658 118.784 55.5658 118.275C55.5658 117.955 55.3723 117.702 55.0711 117.624ZM54.0973 116.645L54.6032 116.586C54.985 116.54 55.1894 116.711 55.1894 117.02C55.1894 117.318 54.9636 117.556 54.6297 117.595L54.0973 117.658V116.645ZM54.6624 118.962L54.0973 119.029V117.88L54.6784 117.811C55.0925 117.762 55.3291 117.951 55.3291 118.303C55.3291 118.677 55.1034 118.91 54.6624 118.962ZM57.8982 118.8L58.1294 118.773L59.1031 116.745C59.1895 116.561 59.2915 116.338 59.3452 116.196L59.3557 116.2C59.3452 116.402 59.3401 116.652 59.3401 116.901V118.629L59.5713 118.602V115.769L59.3292 115.797L58.334 117.887C58.2694 118.03 58.1729 118.237 58.1294 118.35L58.1188 118.346C58.1294 118.177 58.1294 117.949 58.1294 117.765V115.94L57.8982 115.967V118.8ZM61.7524 118.375C62.1828 118.324 62.3498 117.882 62.4035 117.204C62.4304 116.887 62.4569 116.315 62.4732 115.647L63.3984 115.537V118.148L63.6295 118.12V115.287L62.242 115.452C62.2311 116.19 62.21 116.718 62.172 117.194C62.1291 117.719 62.0377 118.114 61.7524 118.148V118.375ZM66.9191 115.926L66.3703 115.991V114.962L66.1391 114.99V117.823L66.9191 117.73C67.4304 117.669 67.8068 117.24 67.8068 116.72C67.8068 116.2 67.4304 115.866 66.9191 115.926ZM66.9191 117.503L66.3703 117.568V116.219L66.9191 116.154C67.3063 116.108 67.5756 116.352 67.5756 116.748C67.5756 117.148 67.3063 117.456 66.9191 117.503ZM71.4349 114.362V115.607L70.2677 115.746V114.5L70.0365 114.528V117.361L70.2677 117.333V115.968L71.4349 115.829V117.195L71.6665 117.167V114.334L71.4349 114.362ZM74.9822 113.881C74.4762 113.941 74.1539 114.294 74.1267 114.752L74.3633 114.724C74.3742 114.397 74.6163 114.147 74.9767 114.104C75.3585 114.059 75.5683 114.278 75.5683 114.711V115.069L74.9876 115.137C74.3797 115.209 74.0407 115.553 74.0407 116.083C74.0407 116.631 74.3851 116.904 74.8798 116.845C75.2188 116.805 75.45 116.626 75.5738 116.4L75.5952 116.701L75.7995 116.677V114.678C75.7995 114.12 75.4928 113.821 74.9822 113.881ZM74.9121 116.614C74.5303 116.659 74.2773 116.467 74.2773 116.061C74.2773 115.66 74.5194 115.409 74.9822 115.355L75.5683 115.285V115.881C75.5683 116.282 75.3317 116.564 74.9121 116.614ZM78.9819 113.466C78.46 113.528 78.1214 113.931 78.1214 114.441C78.1214 114.89 78.3635 115.208 78.7293 115.23L78.0245 116.413L78.2989 116.38L78.9819 115.211L79.4929 115.15V116.239L79.7241 116.211V113.378L78.9819 113.466ZM79.4929 114.934L78.9442 114.999C78.5732 115.043 78.3526 114.808 78.3526 114.413C78.3526 114.023 78.5896 113.741 78.9819 113.694L79.4929 113.633V114.934ZM84.3043 112.776C83.7984 112.835 83.476 113.188 83.4488 113.646L83.6855 113.618C83.6964 113.292 83.9384 113.041 84.2988 112.998C84.6806 112.953 84.8904 113.172 84.8904 113.605V113.963L84.3097 114.032C83.7018 114.104 83.3628 114.447 83.3628 114.978C83.3628 115.525 83.7072 115.798 84.2019 115.74C84.5409 115.699 84.7721 115.52 84.8959 115.295L84.9173 115.595L85.1216 115.571V113.572C85.1216 113.015 84.815 112.715 84.3043 112.776ZM84.2342 115.508C83.8524 115.554 83.5995 115.362 83.5995 114.955C83.5995 114.554 83.8415 114.304 84.3043 114.249L84.8904 114.179V114.775C84.8904 115.176 84.6538 115.459 84.2342 115.508ZM87.3088 115.344C87.7393 115.293 87.9062 114.851 87.96 114.173C87.9868 113.856 88.0133 113.284 88.0297 112.615L88.9548 112.506V115.117L89.186 115.089V112.256L87.7985 112.421C87.7876 113.159 87.7665 113.687 87.7284 114.162C87.6856 114.687 87.5941 115.083 87.3088 115.117V115.344ZM92.4752 112.895L91.9264 112.96V111.931L91.6952 111.958V114.791L92.4752 114.699C92.9865 114.638 93.3629 114.209 93.3629 113.689C93.3629 113.169 92.9865 112.834 92.4752 112.895ZM92.4752 114.471L91.9264 114.536V113.187L92.4752 113.122C92.8624 113.076 93.1317 113.321 93.1317 113.716C93.1317 114.117 92.8624 114.425 92.4752 114.471ZM96.7007 111.365L95.0547 111.56V111.776L95.7596 111.693V114.309L95.9908 114.281V111.665L96.7007 111.581V111.365ZM100.28 112.922C100.237 113.361 100.022 113.63 99.5866 113.682C99.1885 113.729 98.9464 113.498 98.9464 113.027V112.631L100.474 112.45V111.816C100.474 111.215 100.124 110.899 99.5866 110.963C99.0542 111.026 98.7152 111.423 98.7152 112.025V113.054C98.7152 113.65 99.0487 113.973 99.5812 113.91C100.151 113.842 100.469 113.463 100.517 112.894L100.28 112.922ZM99.5866 111.19C99.9953 111.142 100.242 111.372 100.242 111.844V112.261L98.9464 112.414V111.997C98.9464 111.526 99.1885 111.237 99.5866 111.19ZM103.844 110.458C103.537 110.494 103.28 110.671 103.14 110.942L103.113 110.604L102.919 110.627V114.435L103.145 114.408V113.124C103.295 113.345 103.559 113.443 103.828 113.411C104.334 113.352 104.673 112.949 104.673 112.326V111.362C104.673 110.722 104.317 110.402 103.844 110.458ZM104.441 112.353C104.441 112.857 104.188 113.152 103.779 113.201C103.409 113.245 103.145 112.956 103.145 112.529V111.575C103.145 111.034 103.451 110.721 103.796 110.68C104.183 110.634 104.441 110.869 104.441 111.389V112.353ZM108.516 109.963V111.209L107.349 111.347V110.102L107.118 110.129V112.962L107.349 112.934V111.569L108.516 111.431V112.796L108.748 112.768V109.936L108.516 109.963ZM112.064 109.483C111.558 109.543 111.235 109.895 111.208 110.353L111.445 110.325C111.456 109.999 111.698 109.748 112.058 109.705C112.44 109.66 112.65 109.879 112.65 110.312V110.67L112.069 110.739C111.461 110.811 111.122 111.154 111.122 111.685C111.122 112.232 111.467 112.505 111.961 112.447C112.3 112.406 112.531 112.228 112.655 112.002L112.677 112.302L112.881 112.278V110.279C112.881 109.722 112.574 109.422 112.064 109.483ZM111.994 112.215C111.612 112.261 111.359 112.069 111.359 111.662C111.359 111.262 111.601 111.011 112.064 110.956L112.65 110.887V111.482C112.65 111.883 112.413 112.166 111.994 112.215ZM116.692 108.993L115.046 109.189V109.405L115.751 109.322V111.938L115.982 111.91V109.294L116.692 109.21V108.993ZM118.917 111.562L119.148 111.535L120.122 109.507C120.208 109.324 120.31 109.101 120.364 108.959L120.374 108.963C120.364 109.164 120.359 109.414 120.359 109.664V111.391L120.59 111.364V108.531L120.348 108.56L119.353 110.65C119.288 110.792 119.191 110.999 119.148 111.112L119.137 111.108C119.148 110.939 119.148 110.711 119.148 110.528V108.702L118.917 108.73V111.562ZM124.304 109.412C124.53 109.25 124.659 109.012 124.659 108.78C124.659 108.335 124.357 108.09 123.841 108.151L123.099 108.239V111.066L123.9 110.971C124.481 110.902 124.798 110.572 124.798 110.063C124.798 109.743 124.605 109.49 124.304 109.412ZM123.33 108.433L123.836 108.374C124.218 108.328 124.422 108.499 124.422 108.808C124.422 109.106 124.196 109.344 123.862 109.383L123.33 109.446V108.433ZM123.895 110.75L123.33 110.817V109.668L123.911 109.599C124.325 109.55 124.562 109.739 124.562 110.091C124.562 110.465 124.336 110.698 123.895 110.75ZM127.932 107.6C127.426 107.66 127.104 108.013 127.077 108.471L127.313 108.443C127.324 108.117 127.566 107.866 127.927 107.823C128.308 107.778 128.518 107.997 128.518 108.43V108.788L127.938 108.856C127.33 108.929 126.991 109.272 126.991 109.803C126.991 110.35 127.335 110.623 127.83 110.565C128.169 110.524 128.4 110.345 128.524 110.12L128.545 110.42L128.749 110.396V108.397C128.749 107.839 128.443 107.54 127.932 107.6ZM127.862 110.333C127.48 110.379 127.227 110.187 127.227 109.78C127.227 109.379 127.469 109.128 127.932 109.074L128.518 109.004V109.6C128.518 110.001 128.282 110.283 127.862 110.333Z" fill="#2B2A29"/>
</svg>
