<svg width="116" height="64" viewBox="0 0 116 64" fill="none" xmlns="http://www.w3.org/2000/svg">
<path fill-rule="evenodd" clip-rule="evenodd" d="M61.0438 3.76305C61.1464 3.97335 61.4848 4.02075 61.6903 4.02495C62.9578 4.04985 64.5142 3.60555 65.6668 3.07545C66.0016 2.92155 66.7321 2.54415 66.9115 2.18235C66.9523 2.09985 66.9343 2.07375 66.9436 2.00355C66.6316 1.54335 65.6365 0.370954 65.2294 0.0217543C65.209 0.00435432 61.5409 0.831452 61.3825 1.55385C61.3627 1.64445 61.3297 1.72755 61.3153 1.81785L61.1653 2.64465C61.1377 2.84415 61.0135 3.60795 61.0438 3.76305Z" fill="#2B2A29"/>
<path fill-rule="evenodd" clip-rule="evenodd" d="M67.3661 6.94133C67.2491 6.40193 67.3379 6.00953 67.5299 5.65073C67.7186 5.29913 67.9166 4.80053 68.2517 4.63643C68.5322 5.23103 68.8163 5.43413 68.4557 6.08423C68.255 6.44663 67.8953 6.82193 67.3661 6.94133ZM67.0517 1.80563C67.1621 1.97483 67.3061 2.12243 67.4192 2.28683C67.7462 2.76233 66.8135 3.31163 66.4856 3.50033C65.3045 4.18013 63.4514 4.71593 62.1032 4.72553C61.8434 4.72733 61.3724 4.69463 61.1504 4.55123C60.9155 4.39973 60.9671 4.26563 60.9803 4.06943C60.9902 3.92513 60.9968 3.73073 61.0178 3.60083C60.6443 3.78713 59.9399 4.46933 59.8865 4.96523C59.8736 5.08433 59.8877 5.19203 59.9258 5.28923C59.5046 5.51333 59.0954 5.72543 58.7099 5.95103C57.7481 6.51383 57.629 6.63083 56.3795 6.79463L53.3171 7.16273C52.9961 5.03573 50.8631 5.18873 49.4981 6.42203C48.4283 7.38893 47.9219 8.83733 47.4059 10.4603C47.1761 11.183 46.9226 12.0602 46.7249 12.821C46.4237 13.9802 46.3214 14.114 46.7837 15.3551C47.4725 17.2058 48.2072 18.6098 46.9688 20.1095L47.0066 20.4227C47.18 20.6318 48.0881 22.955 48.2675 23.4104C48.6179 24.3002 48.4289 24.3086 49.5035 24.1655C50.1278 24.0821 50.9387 24.0455 51.4367 23.8409C51.5156 23.4104 51.1379 22.5368 50.7287 22.2392C50.0528 21.7481 49.9499 22.8635 49.4633 21.1049C50.7716 20.2826 52.2458 17.5661 52.7408 16.0253L60.2333 17.5346C60.0773 18.5045 59.6693 19.3025 60.1301 20.3282C60.2975 20.7008 60.5471 21.1565 60.7346 21.5213C60.8933 21.8306 61.1207 22.4699 61.4378 22.6277C61.8839 22.8197 64.1639 22.4552 64.5836 22.2269C64.6316 21.68 64.3418 21.4184 64.0895 21.044C63.5813 20.2895 63.5906 20.6732 63.1595 20.4998C62.6405 20.291 63.1631 19.1195 63.4607 18.257C63.7229 17.4956 63.8855 16.5515 64.3373 16.052L65.8532 14.2628C66.641 13.4087 67.0793 12.6125 67.2428 11.7275C67.3499 11.1479 67.0673 10.4828 66.908 9.62603C66.8528 9.04883 67.6826 7.91663 67.7843 7.70033C67.8857 7.48493 67.9925 7.55813 68.2088 7.46873C68.7008 7.26623 69.2288 6.47153 69.3548 5.95013C69.6278 4.82123 69.0539 4.40273 68.1977 3.84323C68.2349 3.81053 68.2715 3.77783 68.3069 3.74453C68.7197 3.35693 69.1874 2.71493 68.6285 2.21813C68.2985 1.92473 67.3778 1.75193 67.0517 1.80563ZM60.5162 5.78663C61.0559 5.99243 61.8923 6.03023 62.8376 5.92373C63.1571 6.40163 63.5699 6.75353 64.3178 6.51443C64.7756 6.36773 64.9859 5.94113 65.0564 5.45453C65.8403 5.21333 66.6047 4.89503 67.2596 4.51043C66.7892 5.53793 66.4805 5.38613 66.5537 7.08563C65.8577 7.05353 65.6198 6.73973 65.1974 7.18073C65.2655 7.90973 66.1466 7.89263 66.8486 7.84523C66.8552 8.16743 66.1727 8.84543 66.0908 9.36593C65.9591 10.1996 66.5588 11.0597 66.4673 11.642C66.2855 12.7946 65.7035 13.61 64.7216 14.3384C64.8005 13.8578 65.0198 13.7318 64.7399 13.3526C64.1858 13.1024 64.1066 13.5017 63.989 13.9487L62.999 17.1227C61.7951 20.6237 61.9526 19.982 62.6252 21.3299C63.2543 21.449 63.2468 21.11 63.5189 21.6887L61.8062 21.8726C61.2959 20.9423 60.5369 19.8743 60.7898 18.7631C60.9224 18.1844 61.5245 15.9875 61.2557 15.4577C60.5135 15.2324 60.4892 16.2164 60.4448 16.7669L52.9373 15.221C52.9613 14.45 53.1215 13.5272 52.8038 12.8213L52.2179 12.9074C52.0757 13.5563 52.2743 14.5934 52.0397 15.5495C51.4829 17.8196 50.1923 19.3667 48.5744 20.8955C48.6449 21.4424 49.1246 22.5881 49.4444 22.8908C50.138 23.174 50.0852 22.5299 50.426 23.2586L49.1306 23.4128C47.5892 19.6964 47.7449 20.9747 48.2939 19.2575C48.8099 17.6441 47.8976 16.2161 47.3762 14.7209C46.9772 13.577 48.7214 8.20823 50.0069 7.01483C50.6288 6.43733 51.8873 5.85893 52.4222 6.83843C53.0747 8.03303 51.3311 8.55203 50.5505 8.27603C51.2639 7.90613 52.5833 7.88453 52.0901 6.76193C51.3452 6.64013 51.7016 6.85943 51.2171 7.19693C50.9444 7.38683 50.528 7.40903 50.1926 7.55513C49.496 7.85903 49.571 8.83283 50.1926 9.05543C50.6636 9.22373 52.0673 9.02393 52.5011 8.77973C53.5034 8.21603 52.4627 8.06033 54.2369 7.85093C56.027 7.63943 57.4097 7.62833 58.8131 6.80093C59.3648 6.47543 59.9414 6.12503 60.5162 5.78663ZM63.5261 5.79263C63.626 5.77133 64.2602 5.65463 64.3607 5.63063C64.2815 5.98733 63.9191 6.16343 63.5261 5.79263Z" fill="#2B2A29"/>
<path fill-rule="evenodd" clip-rule="evenodd" d="M68.1417 4.2948C67.8282 4.3188 67.6053 4.5789 67.6437 4.8753C67.6821 5.1717 67.9677 5.3922 68.2812 5.3682C68.595 5.3439 68.8179 5.0838 68.7792 4.7874C68.7408 4.4913 68.4552 4.2705 68.1417 4.2948Z" fill="#2B2A29"/>
<path fill-rule="evenodd" clip-rule="evenodd" d="M1.04883 45.465L114.951 32.0049V45.3201L1.04883 58.7802V45.465ZM14.3715 47.1534V47.133L11.9508 47.4189V47.4396C12.2163 47.583 12.4206 48.0834 12.4206 48.906V50.9016C12.1956 50.9691 11.9709 51.006 11.8179 51.0243C10.6533 51.1617 10.1325 50.7192 10.1325 49.7319V49.1766C10.1325 48.333 10.3572 47.8026 10.6023 47.5989V47.5782L8.19183 47.8632V47.8836C8.44743 48.0282 8.73333 48.4881 8.73333 49.3419V49.743C8.73333 51.399 9.39723 52.3488 11.4195 52.11C11.6646 52.0809 12.0732 52.0122 12.4206 51.9093V52.9689C12.4206 53.8122 12.1242 54.3513 11.8689 54.5562V54.5766L14.3715 54.2808V54.2604C14.1057 54.117 13.8198 53.6571 13.8198 52.8033V48.7407C13.8198 47.8974 14.1159 47.3583 14.3715 47.1534ZM26.6856 50.8512C26.2464 51.5304 25.5315 51.9543 24.6324 52.0605L23.5191 52.1922V49.878L24.459 49.767C25.0308 49.6992 25.3986 49.8411 25.5723 50.2833L25.5927 50.2809L25.8888 48.5181C25.4292 48.6342 25.1433 48.6783 24.2955 48.7782L23.5191 48.87V47.0598L24.8676 46.9005C25.6641 46.8063 26.2257 46.9971 26.4711 47.472L26.4915 47.4594L26.3178 45.639C26.0931 45.717 25.6437 45.801 25.2351 45.849L21.5685 46.2825V46.3029C21.834 46.4466 22.1199 46.9062 22.1199 47.76V51.8226C22.1199 52.6659 21.8235 53.205 21.5685 53.4099V53.4306L25.1739 53.0046C25.7766 52.9332 26.0421 52.9224 26.4198 52.9395L26.706 50.859L26.6856 50.8512ZM36.4767 44.5206L33.6882 44.8503V44.8707C33.954 45.0141 34.2399 45.474 34.2399 46.2864V50.3904C34.2399 51.2337 33.9435 51.7728 33.6882 51.9777V51.9984L36.1908 51.7026V51.6819C35.925 51.5385 35.6391 51.0786 35.6391 50.2662V49.4124L36.4767 49.3134C38.1006 49.1217 39.0507 48.2175 39.0507 46.5408C39.0507 45.06 38.1006 44.3289 36.4767 44.5206ZM36.2418 48.3231L35.6391 48.384V45.6378L36.2418 45.5667C37.1712 45.4569 37.6002 45.8382 37.6002 46.7844C37.6002 47.6688 37.1814 48.2223 36.2418 48.3231ZM51.7836 42.7323V42.7119L49.3629 42.9978V43.0185C49.6284 43.1619 49.8327 43.6623 49.8327 44.4852V46.4805C49.608 46.548 49.3833 46.5849 49.2303 46.6032C48.0657 46.7406 47.5449 46.2981 47.5449 45.3108V44.7555C47.5449 43.9122 47.7696 43.3815 48.0147 43.1778V43.1571L45.6042 43.4421V43.4628C45.8595 43.6074 46.1454 44.067 46.1454 44.9208V45.3219C46.1454 46.9779 46.8093 47.928 48.8316 47.6889C49.077 47.6601 49.4856 47.5911 49.8327 47.4885V48.5478C49.8327 49.3911 49.5366 49.9302 49.2813 50.1351V50.1555L51.7836 49.86V49.8393C51.5181 49.6959 51.2322 49.236 51.2322 48.3822V44.3196C51.2322 43.4763 51.5283 42.9375 51.7836 42.7323ZM59.0112 49.0059L61.0437 48.7656C61.1559 48.4749 61.35 48.0816 61.5546 47.7282L63.0969 45.0366C63.4848 44.3631 63.8424 43.5909 64.1283 42.7239L64.1694 42.7188C63.9753 43.5957 63.8832 44.3985 63.8832 45.036V46.8873C63.8832 47.7306 63.5871 48.2697 63.3318 48.4749V48.4953L65.8443 48.1983V48.1779C65.5788 48.0345 65.2926 47.5746 65.2926 46.7208V42.6069C65.2926 41.9487 65.6604 41.2161 65.8953 41.0649V41.0442L63.6381 41.3112C63.6177 41.5191 63.5565 41.7423 63.2193 42.348L61.7484 44.9799C61.4727 45.4752 61.0641 46.2435 60.7578 47.1642L60.717 47.169C60.8802 46.2342 60.9417 45.5688 60.9417 44.9826V43.1724C60.9417 42.3291 61.2378 41.79 61.4727 41.5875V41.5668L58.9806 41.8614V41.8821C59.2461 42.0255 59.532 42.4854 59.532 43.3389V47.4015C59.532 48.2448 59.2461 48.7827 59.0112 48.9855V49.0059ZM72.2802 47.4378L74.5377 47.1711V47.1507C74.3946 47.0439 74.3334 46.6398 74.5578 45.8832L75.2628 43.4961C75.4773 42.7611 75.6918 42.0363 75.7839 41.3055L75.8247 41.3004C75.9369 42.0072 76.1412 42.6825 76.3557 43.3668L77.0604 45.5874C77.2851 46.2909 77.2239 46.6995 77.0808 46.8501V46.8705L79.4403 46.5918V46.5711C79.1544 46.3581 78.705 45.8046 78.4395 45.0234L77.091 41.079C76.8867 40.4859 76.9584 39.9837 77.2239 39.7263V39.7056L74.4354 40.035V40.0557C74.7114 40.2699 74.8134 40.7721 74.6091 41.4132L73.2813 45.633C73.0158 46.4769 72.5664 47.1366 72.2802 47.4174V47.4378ZM85.4832 45.8775L87.7404 45.6108V45.5904C87.5973 45.4836 87.5361 45.0795 87.7608 44.3229L88.4655 41.9358C88.6803 41.2008 88.8945 40.476 88.9866 39.7452L89.0274 39.7404C89.1399 40.4469 89.3439 41.1222 89.5584 41.8065L90.2631 44.0271C90.4881 44.7306 90.4269 45.1392 90.2838 45.2898V45.3102L92.643 45.0315V45.0108C92.3571 44.7978 91.9077 44.2443 91.6422 43.4631L90.2937 39.5187C90.0897 38.9256 90.1611 38.4234 90.4269 38.166V38.1453L87.6381 38.4747V38.4954C87.9141 38.7096 88.0161 39.2118 87.8118 39.8532L86.484 44.0727C86.2185 44.9166 85.7691 45.5763 85.4832 45.8571V45.8775ZM101.97 39.2292L101.01 39.3426V38.4375C101.01 37.5942 101.306 37.0551 101.561 36.8502V36.8295L99.0588 37.1253V37.146C99.3243 37.2894 99.6102 37.7493 99.6102 38.5617V42.6654C99.6102 43.5087 99.3141 44.0478 99.0588 44.253V44.2734L102.062 43.9185C103.4 43.7604 104.513 42.7959 104.513 41.181C104.513 39.7206 103.461 39.0531 101.97 39.2292ZM101.602 42.9444L101.01 43.0143V40.3608L101.602 40.2909C102.593 40.1739 103.052 40.5411 103.052 41.436C103.052 42.2997 102.593 42.8274 101.602 42.9444Z" fill="#2B2A29"/>
<path fill-rule="evenodd" clip-rule="evenodd" d="M1.04883 43.3219L13.1754 41.9107V34.8916L1.04883 43.3219Z" fill="#2B2A29"/>
<path fill-rule="evenodd" clip-rule="evenodd" d="M114.951 47.543L102.825 48.9542V55.9733L114.951 47.543Z" fill="#2B2A29"/>
<path d="M0.985107 43.828L114.887 30.3682L115.015 31.4536L1.11321 44.9134L0.985107 43.828Z" fill="#2B2A29"/>
<path d="M0.985107 59.3778L114.887 45.918L115.015 47.0034L1.11321 60.4635L0.985107 59.3778Z" fill="#2B2A29"/>
<path d="M39.0094 36.2343C39.0094 36.2832 39.0004 36.3168 38.9842 36.3372C38.968 36.36 38.9332 36.3735 38.8804 36.3798L38.5918 36.4137C38.5111 36.4233 38.4394 36.4038 38.3797 36.3552C38.3197 36.3066 38.2894 36.2403 38.2894 36.159V32.6295L37.4587 32.7276V36.2502C37.4587 36.3363 37.4266 36.4122 37.3642 36.4752C37.3021 36.5385 37.228 36.5748 37.1473 36.5844L36.8566 36.6189C36.8035 36.6252 36.7666 36.6201 36.7504 36.6012C36.7342 36.5844 36.7249 36.5508 36.7249 36.4974V28.5456C36.7249 28.4922 36.7342 28.4562 36.7504 28.4358C36.7666 28.413 36.8035 28.3992 36.8566 28.3929L37.1473 28.3587C37.2442 28.3473 37.3204 28.3662 37.3756 28.4175C37.4311 28.4691 37.4587 28.5447 37.4587 28.6401V32.1141L38.2894 32.016V28.521C38.2894 28.4352 38.3218 28.3593 38.3842 28.2963C38.4466 28.233 38.518 28.1967 38.5987 28.1871L38.8873 28.1529C38.9404 28.1466 38.9725 28.1523 38.9887 28.1712C39.0028 28.188 39.0094 28.2222 39.0094 28.2756V36.2343ZM46.0942 28.1913C46.0942 28.0611 46.1173 27.933 46.1632 27.8067C46.2094 27.6804 46.2787 27.5631 46.3756 27.4587C46.4725 27.3519 46.5925 27.261 46.738 27.1857C46.8808 27.1107 47.0518 27.0627 47.2501 27.039C47.4487 27.0156 47.6194 27.0234 47.767 27.0642C47.9149 27.1047 48.0349 27.1671 48.127 27.2517C48.2218 27.3333 48.2911 27.4344 48.337 27.5496C48.3832 27.6651 48.4063 27.7878 48.4063 27.918V34.3638C48.4063 34.4754 48.3856 34.5942 48.3439 34.7199C48.3049 34.8453 48.2356 34.9629 48.1432 35.0736C48.0487 35.1822 47.9287 35.2779 47.7811 35.358C47.6332 35.4381 47.458 35.4915 47.2501 35.5161C47.0425 35.5404 46.8673 35.5287 46.7194 35.4834C46.5718 35.4381 46.4518 35.3733 46.3618 35.2863C46.2694 35.202 46.2025 35.1006 46.1587 34.9851C46.1149 34.8693 46.0942 34.7535 46.0942 34.6371V28.1913ZM46.828 34.5342C46.828 34.6341 46.8604 34.7187 46.9249 34.7877C46.9894 34.8543 47.1025 34.8783 47.2618 34.8594C47.4142 34.8414 47.5249 34.791 47.5894 34.7091C47.6539 34.6248 47.6863 34.5327 47.6863 34.4328V28.0194C47.6863 27.9195 47.6518 27.8352 47.5849 27.7665C47.518 27.6999 47.4073 27.6759 47.2525 27.6942C47.0956 27.7128 46.9849 27.7653 46.9225 27.8493C46.8604 27.9333 46.828 28.0254 46.828 28.1208V34.5342ZM55.6294 34.4004C55.5763 34.4067 55.5418 34.4013 55.5256 34.3824C55.5094 34.3659 55.5001 34.3296 55.5001 34.2786V26.2989C55.5001 26.2455 55.5094 26.2098 55.5256 26.1891C55.5418 26.1663 55.5763 26.1531 55.6294 26.1468L56.6608 26.0247C56.8801 25.9989 57.0646 26.0097 57.2125 26.0571C57.3577 26.1051 57.4732 26.175 57.5608 26.2671C57.6463 26.3592 57.7084 26.4633 57.7456 26.5797C57.7801 26.6964 57.7984 26.808 57.7984 26.9127V28.983C57.7984 29.1945 57.7801 29.3871 57.7456 29.5587C57.7084 29.7303 57.6187 29.8665 57.4756 29.9718C57.547 30.0075 57.6046 30.0588 57.6463 30.1305C57.6901 30.1995 57.7222 30.2772 57.7456 30.3651C57.7663 30.453 57.7801 30.5445 57.787 30.6414C57.7938 30.7356 57.7984 30.8283 57.7984 30.9141V33.1263C57.7984 33.2283 57.7801 33.3399 57.7456 33.4623C57.7084 33.5853 57.6463 33.7044 57.5563 33.8172C57.4684 33.9276 57.3484 34.0275 57.1963 34.113C57.0463 34.1982 56.8546 34.2555 56.6239 34.2828L55.6294 34.4004ZM56.2339 30.4389V33.6783L56.6494 33.6291C56.8018 33.6111 56.9125 33.5586 56.9794 33.474C57.0463 33.3873 57.0784 33.2973 57.0784 33.1998V30.9993C57.0784 30.9318 57.0739 30.8604 57.0669 30.7845C57.0601 30.7062 57.0439 30.6384 57.0184 30.5742C56.9908 30.5124 56.9539 30.4632 56.9032 30.4251C56.8525 30.3867 56.7832 30.3741 56.6908 30.3852L56.2339 30.4389ZM56.2339 26.7189V29.8116L56.6908 29.7576C56.7832 29.7468 56.8525 29.7177 56.9032 29.6676C56.9539 29.6172 56.9908 29.5596 57.0184 29.4912C57.0439 29.4207 57.0601 29.3493 57.0669 29.2695C57.0739 29.1921 57.0784 29.1192 57.0784 29.052V26.9955C57.0784 26.9001 57.0463 26.8158 56.9794 26.7468C56.9125 26.6757 56.8018 26.6517 56.6494 26.6697L56.2339 26.7189ZM68.4643 32.7024C68.4643 32.8233 68.4067 32.8905 68.2891 32.9046L67.906 32.9496C67.7881 32.9637 67.7305 32.91 67.7305 32.7891V25.0419C67.7305 24.9561 67.7629 24.8802 67.8253 24.8172C67.8874 24.7539 67.9612 24.7173 68.0422 24.7077L68.3328 24.6732C68.386 24.6672 68.4229 24.672 68.4391 24.6864C68.4553 24.7008 68.4643 24.7344 68.4643 24.7881V32.7024ZM65.3284 25.0284C65.4091 25.0188 65.4829 25.038 65.5453 25.0863C65.6074 25.1349 65.6397 25.203 65.6397 25.2891V27.8775L66.0553 27.8286C66.4153 27.786 66.6966 27.8481 66.8997 28.017C67.1028 28.1835 67.2043 28.4154 67.2043 28.7106V32.0148C67.2043 32.31 67.1053 32.5656 66.9043 32.7798C66.706 32.9964 66.4266 33.1245 66.0666 33.1671L65.0353 33.2889C64.9822 33.2952 64.9477 33.2901 64.9315 33.2709C64.9153 33.2544 64.906 33.2205 64.906 33.1671V25.2156C64.906 25.1619 64.9153 25.1259 64.9315 25.1055C64.9477 25.0827 64.9846 25.0689 65.0377 25.0629L65.3284 25.0284ZM66.0553 32.5155C66.2077 32.4975 66.3184 32.4447 66.3853 32.3604C66.4522 32.2734 66.4843 32.1837 66.4843 32.0859V28.7886C66.4843 28.698 66.4543 28.6155 66.3946 28.5459C66.3346 28.4766 66.2352 28.4487 66.0966 28.4652L65.6397 28.5189V32.5647L66.0553 32.5155ZM75.5536 23.9502C75.5536 23.9016 75.5628 23.8677 75.5766 23.8476C75.5904 23.8251 75.625 23.8116 75.6759 23.8056L75.9666 23.7714C76.0518 23.7612 76.128 23.7801 76.1928 23.8281C76.2574 23.8764 76.285 23.9451 76.2757 24.0321L76.1674 29.3013L77.0466 24.2526C77.0856 24.0504 77.1343 23.8935 77.1943 23.7819C77.2543 23.6703 77.3304 23.61 77.4228 23.5992L77.7112 23.565C77.7691 23.5584 77.8035 23.5635 77.8197 23.5827C77.8335 23.5995 77.8405 23.6313 77.8405 23.6802V31.6458C77.8405 31.6875 77.8312 31.7235 77.815 31.7463C77.7988 31.7691 77.7643 31.7847 77.7112 31.791L77.4297 31.8243C77.3373 31.8351 77.2612 31.8186 77.1987 31.7727C77.1367 31.7265 77.1067 31.6533 77.1112 31.5576L77.2266 26.2644L76.3336 31.3869C76.3198 31.4628 76.3036 31.5345 76.2874 31.6038C76.2688 31.6734 76.246 31.7364 76.2181 31.7931C76.1881 31.8501 76.1536 31.896 76.1143 31.9332C76.0729 31.9683 76.0198 31.9908 75.9574 31.9983L75.6853 32.0304C75.6319 32.0367 75.5974 32.0292 75.5791 32.0106C75.5629 31.9914 75.5536 31.9578 75.5536 31.9158V23.9502ZM77.5243 21.3984C77.5243 22.0071 77.4574 22.4589 77.3281 22.7508C77.1988 23.0424 76.9773 23.2056 76.666 23.2425C76.3381 23.2812 76.1166 23.1681 75.9987 22.9032C75.8811 22.6404 75.8212 22.2039 75.8212 21.5997C75.8212 21.5742 75.8281 21.5523 75.8422 21.5298C75.8584 21.507 75.8787 21.495 75.9087 21.4917L76.1028 21.4686C76.1418 21.4641 76.1812 21.4734 76.2205 21.4941C76.2622 21.5172 76.2873 21.5607 76.2966 21.627C76.3218 22.0422 76.3591 22.3494 76.4118 22.5477C76.465 22.7457 76.5504 22.8378 76.666 22.8243C76.8573 22.8015 76.9818 22.3779 77.0397 21.5556C77.049 21.48 77.0742 21.426 77.116 21.3933C77.1573 21.3579 77.1987 21.3393 77.2429 21.3339L77.4366 21.3111C77.4597 21.3084 77.4804 21.315 77.4987 21.3294C77.5149 21.3459 77.5243 21.3681 77.5243 21.3984Z" fill="#2B2A29"/>
<path d="M20.9585 60.882L19.5203 61.0527V63.5523L19.7243 63.528V61.2243L20.7542 61.1022V63.4059L20.9585 63.3816V60.882ZM23.9933 60.4695C23.7227 60.5016 23.4953 60.6576 23.3717 60.897L23.348 60.5985L23.177 60.6189V63.9789L23.3765 63.9552V62.8224C23.5091 63.0168 23.7419 63.1038 23.9792 63.0756C24.4253 63.0228 24.7244 62.6673 24.7244 62.1177V61.2669C24.7244 60.7029 24.4109 60.42 23.9933 60.4695ZM24.5204 62.142C24.5204 62.5863 24.2972 62.847 23.9363 62.8896C23.609 62.9286 23.3765 62.6742 23.3765 62.2968V61.4556C23.3765 60.9777 23.6468 60.7017 23.9507 60.6657C24.2924 60.6252 24.5204 60.8325 24.5204 61.2912V62.142ZM27.5888 60.0429C27.1424 60.0957 26.858 60.4068 26.834 60.8109L27.0428 60.7863C27.0524 60.4983 27.266 60.2772 27.584 60.2394C27.9209 60.1995 28.106 60.3927 28.106 60.7749V61.0905L27.5936 61.1511C27.0572 61.2147 26.7581 61.5177 26.7581 61.986C26.7581 62.4687 27.062 62.7099 27.4985 62.6583C27.7976 62.6226 28.0016 62.4648 28.1108 62.2656L28.1297 62.5308L28.31 62.5095V60.7458C28.31 60.2538 28.0394 59.9895 27.5888 60.0429ZM27.527 62.454C27.1901 62.4942 26.9669 62.3247 26.9669 61.9662C26.9669 61.6125 27.1805 61.3911 27.5888 61.3428L28.106 61.2816V61.8072C28.106 62.1609 27.8972 62.4102 27.527 62.454ZM31.5923 60.7866C31.7918 60.6435 31.9055 60.4341 31.9055 60.2286C31.9055 59.8365 31.6397 59.6199 31.1843 59.6739L30.5291 59.7516V62.2464L31.2365 62.1624C31.7489 62.1015 32.0288 61.8105 32.0288 61.3611C32.0288 61.0791 31.8581 60.8556 31.5923 60.7866ZM30.7331 59.9232L31.1795 59.8704C31.5164 59.8302 31.6967 59.9811 31.6967 60.2535C31.6967 60.5163 31.4975 60.7263 31.2029 60.7611L30.7331 60.8169V59.9232ZM31.2317 61.9671L30.7331 62.0262V61.0128L31.2458 60.9519C31.6112 60.9087 31.82 61.0752 31.82 61.3857C31.82 61.7154 31.6208 61.9209 31.2317 61.9671ZM34.0868 61.8243L34.2908 61.8L35.15 60.0108C35.2262 59.8491 35.3162 59.652 35.3636 59.5269L35.3729 59.5305C35.3636 59.7084 35.3591 59.9289 35.3591 60.1488V61.6734L35.5631 61.6491V59.1495L35.3495 59.1747L34.4714 61.0188C34.4144 61.1448 34.3292 61.3272 34.2908 61.4271L34.2815 61.4235C34.2908 61.2744 34.2908 61.0734 34.2908 60.9111V59.3004L34.0868 59.3247V61.8243ZM37.4876 61.4496C37.8674 61.4046 38.0147 61.0143 38.0621 60.4161C38.0858 60.1362 38.1092 59.6313 38.1236 59.0418L38.9399 58.9449V61.2486L39.1439 61.2243V58.7247L37.9196 58.8699C37.91 59.5212 37.8914 59.9871 37.8578 60.4068C37.82 60.87 37.7393 61.2189 37.4876 61.2486V61.4496ZM42.0464 59.2887L41.5622 59.346V58.4379L41.3582 58.4622V60.9618L42.0464 60.8802C42.4976 60.8265 42.8297 60.4479 42.8297 59.9892C42.8297 59.5302 42.4976 59.235 42.0464 59.2887ZM42.0464 60.6795L41.5622 60.7368V59.5467L42.0464 59.4894C42.3881 59.4486 42.6257 59.6646 42.6257 60.0135C42.6257 60.3669 42.3881 60.6387 42.0464 60.6795ZM46.031 57.9081V59.0073L45.0011 59.1294V58.0302L44.7971 58.0545V60.5541L45.0011 60.5298V59.3253L46.031 59.2032V60.4077L46.2353 60.3834V57.8838L46.031 57.9081ZM49.1609 57.4842C48.7145 57.537 48.4301 57.8481 48.4061 58.2522L48.6149 58.2276C48.6245 57.9396 48.8381 57.7185 49.1561 57.6807C49.493 57.6408 49.6781 57.834 49.6781 58.2162V58.5318L49.1657 58.5924C48.6293 58.656 48.3302 58.959 48.3302 59.4273C48.3302 59.91 48.6341 60.1512 49.0706 60.0996C49.3697 60.0639 49.5737 59.9061 49.6829 59.7069L49.7018 59.9721L49.8821 59.9508V58.1871C49.8821 57.6951 49.6115 57.4308 49.1609 57.4842ZM49.0991 59.8953C48.7622 59.9355 48.539 59.766 48.539 59.4075C48.539 59.0538 48.7526 58.8324 49.1609 58.7841L49.6781 58.7229V59.2485C49.6781 59.6022 49.4693 59.8515 49.0991 59.8953ZM52.6901 57.1182C52.2296 57.1728 51.9308 57.5283 51.9308 57.9777C51.9308 58.3743 52.1444 58.6551 52.4672 58.674L51.8453 59.718L52.0874 59.6892L52.6901 58.6572L53.141 58.6038V59.5644L53.345 59.5401V57.0405L52.6901 57.1182ZM53.141 58.4127L52.6568 58.47C52.3295 58.509 52.1348 58.3023 52.1348 57.9534C52.1348 57.6093 52.3439 57.36 52.6901 57.3189L53.141 57.2655V58.4127ZM57.3863 56.5086C56.9399 56.5614 56.6555 56.8725 56.6315 57.2766L56.8403 57.252C56.8499 56.964 57.0635 56.7429 57.3815 56.7051C57.7184 56.6652 57.9035 56.8584 57.9035 57.2406V57.5562L57.3911 57.6168C56.8547 57.6804 56.5556 57.9834 56.5556 58.4517C56.5556 58.9344 56.8595 59.1756 57.296 59.124C57.5951 59.0883 57.7991 58.9305 57.9083 58.7313L57.9272 58.9965L58.1075 58.9752V57.2115C58.1075 56.7195 57.8369 56.4552 57.3863 56.5086ZM57.3245 58.9197C56.9876 58.9599 56.7644 58.7904 56.7644 58.4319C56.7644 58.0782 56.978 57.8568 57.3863 57.8085L57.9035 57.7473V58.2729C57.9035 58.6266 57.6947 58.8759 57.3245 58.9197ZM60.0374 58.7751C60.4172 58.7301 60.5645 58.3398 60.6119 57.7416C60.6356 57.4617 60.659 56.9568 60.6734 56.3673L61.4897 56.2704V58.5741L61.6937 58.5498V56.0502L60.4694 56.1954C60.4598 56.8467 60.4412 57.3126 60.4076 57.7323C60.3698 58.1955 60.2891 58.5444 60.0374 58.5741V58.7751ZM64.5959 56.6139L64.1117 56.6712V55.7631L63.9077 55.7874V58.287L64.5959 58.2054C65.0471 58.1517 65.3792 57.7731 65.3792 57.3144C65.3792 56.8554 65.0471 56.5602 64.5959 56.6139ZM64.5959 58.0047L64.1117 58.062V56.8719L64.5959 56.8146C64.9376 56.7738 65.1752 56.9898 65.1752 57.3387C65.1752 57.6921 64.9376 57.9639 64.5959 58.0047ZM68.3243 55.2636L66.872 55.4358V55.6269L67.4939 55.5531V57.8616L67.6979 57.8373V55.5288L68.3243 55.4547V55.2636ZM71.4827 56.6382C71.4449 57.0249 71.255 57.2625 70.8707 57.3081C70.5194 57.3498 70.3058 57.1458 70.3058 56.73V56.3811L71.6537 56.2212V55.662C71.6537 55.1313 71.3453 54.8526 70.8707 54.909C70.4009 54.9648 70.1018 55.3155 70.1018 55.8462V56.7543C70.1018 57.2799 70.3961 57.5652 70.8659 57.5094C71.369 57.4497 71.6492 57.1155 71.6918 56.6133L71.4827 56.6382ZM70.8707 55.1097C71.2313 55.0668 71.4494 55.2705 71.4494 55.6863V56.0541L70.3058 56.1897V55.8219C70.3058 55.4061 70.5194 55.1514 70.8707 55.1097ZM74.6273 54.4635C74.3567 54.4956 74.1293 54.6516 74.0057 54.891L73.982 54.5925L73.811 54.6129V57.9729L74.0105 57.9492V56.8164C74.1431 57.0108 74.3759 57.0978 74.6132 57.0696C75.0593 57.0168 75.3584 56.6613 75.3584 56.1117V55.2609C75.3584 54.6969 75.0449 54.414 74.6273 54.4635ZM75.1544 56.136C75.1544 56.5803 74.9312 56.841 74.5703 56.8836C74.243 56.9226 74.0105 56.6682 74.0105 56.2908V55.4496C74.0105 54.9717 74.2808 54.6957 74.5847 54.6597C74.9264 54.6192 75.1544 54.8265 75.1544 55.2852V56.136ZM78.7496 54.027V55.1262L77.7197 55.2483V54.1491L77.5157 54.1734V56.673L77.7197 56.6487V55.4442L78.7496 55.3221V56.5266L78.9539 56.5023V54.0027L78.7496 54.027ZM81.8798 53.6031C81.4334 53.6559 81.149 53.967 81.125 54.3711L81.3338 54.3465C81.3434 54.0585 81.557 53.8374 81.875 53.7996C82.2119 53.7597 82.397 53.9529 82.397 54.3351V54.6507L81.8846 54.7113C81.3482 54.7749 81.0491 55.0779 81.0491 55.5462C81.0491 56.0289 81.353 56.2701 81.7895 56.2185C82.0886 56.1828 82.2926 56.025 82.4018 55.8258L82.4207 56.091L82.601 56.0697V54.306C82.601 53.814 82.3304 53.5497 81.8798 53.6031ZM81.818 56.0142C81.4811 56.0544 81.2579 55.8849 81.2579 55.5264C81.2579 55.1727 81.4715 54.9513 81.8798 54.903L82.397 54.8418V55.3674C82.397 55.7211 82.1882 55.9704 81.818 56.0142ZM85.964 53.1714L84.5117 53.3436V53.5347L85.1336 53.4609V55.7694L85.3376 55.7451V53.4366L85.964 53.3625V53.1714ZM87.9266 55.4382L88.1306 55.4139L88.9898 53.6247C89.066 53.463 89.156 53.2659 89.2034 53.1408L89.2127 53.1444C89.2034 53.3223 89.1989 53.5428 89.1989 53.7627V55.2873L89.4029 55.263V52.7634L89.1893 52.7886L88.3112 54.6327C88.2542 54.7587 88.169 54.9411 88.1306 55.041L88.1213 55.0374C88.1306 54.8883 88.1306 54.6873 88.1306 54.525V52.9143L87.9266 52.9386V55.4382ZM92.6798 53.5407C92.8793 53.3976 92.993 53.1882 92.993 52.9827C92.993 52.5906 92.7272 52.374 92.2718 52.428L91.6166 52.5057V55.0005L92.324 54.9165C92.8364 54.8556 93.1163 54.5646 93.1163 54.1152C93.1163 53.8332 92.9456 53.6097 92.6798 53.5407ZM91.8206 52.6773L92.267 52.6245C92.6039 52.5843 92.7842 52.7352 92.7842 53.0076C92.7842 53.2704 92.585 53.4804 92.2904 53.5152L91.8206 53.571V52.6773ZM92.3192 54.7212L91.8206 54.7803V53.7669L92.3333 53.706C92.6987 53.6628 92.9075 53.8293 92.9075 54.1398C92.9075 54.4695 92.7083 54.675 92.3192 54.7212ZM95.8814 51.9423C95.435 51.9951 95.1506 52.3062 95.1266 52.7103L95.3354 52.6857C95.345 52.3977 95.5586 52.1766 95.8766 52.1388C96.2135 52.0989 96.3986 52.2921 96.3986 52.6743V52.9899L95.8862 53.0505C95.3498 53.1141 95.0507 53.4171 95.0507 53.8854C95.0507 54.3681 95.3546 54.6093 95.7911 54.5577C96.0902 54.522 96.2942 54.3642 96.4034 54.165L96.4223 54.4302L96.6026 54.4089V52.6452C96.6026 52.1532 96.332 51.8889 95.8814 51.9423ZM95.8196 54.3534C95.4827 54.3936 95.2595 54.2241 95.2595 53.8656C95.2595 53.5119 95.4731 53.2905 95.8814 53.2422L96.3986 53.181V53.7066C96.3986 54.0603 96.1898 54.3096 95.8196 54.3534Z" fill="#2B2A29"/>
</svg>
