<svg width="70" height="70" viewBox="0 0 70 70" fill="none" xmlns="http://www.w3.org/2000/svg">
<path fill-rule="evenodd" clip-rule="evenodd" d="M50.4288 24.8629C56.2553 14.1406 58.4376 5.76938 57.12 4.52585C55.9918 3.45527 46.6612 6.87703 42.14 10.3194C41.2753 10.9864 37.7671 21.0459 36.6635 21.4823C35.7206 21.8694 35.8647 15.3964 36.3959 12.5594C32.0106 14.5976 24.6441 19.8559 20.5759 23.5C20.2588 23.7882 19.4394 36.977 19.0606 37.3723C18.2865 38.1464 15.9559 28.4412 15.3053 29.2729C5.98294 41.1317 1.79529 54.3576 5.68235 60.04C1.96823 66.0188 0.107056 69.8894 0.107056 69.8894L2.96882 69.7782C4.69823 66.8176 6.41529 64.0382 8.12411 61.3453L8.23941 61.407C12.3488 61.8106 22.3547 60.6535 32.3441 51.3064C32.3441 51.3064 26.7853 48.1317 27.6912 47.1806C28.5888 46.2253 37.2153 43.3841 38.1171 42.3135C41.3494 38.4511 43.1776 36.6559 45.6276 32.9006C46.2741 31.9206 38.9118 33.7035 39.5088 32.7359C40.0894 31.797 41.44 27.0247 50.4288 24.8629Z" fill="#77D586"/>
</svg>
