<svg width="70" height="70" viewBox="0 0 70 70" fill="none" xmlns="http://www.w3.org/2000/svg">
<path d="M8.74996 40.8337H14.5833V61.2504C14.5833 62.0239 14.8906 62.7658 15.4376 63.3128C15.9846 63.8597 16.7264 64.167 17.5 64.167H52.5C53.2735 64.167 54.0154 63.8597 54.5624 63.3128C55.1093 62.7658 55.4166 62.0239 55.4166 61.2504V40.8337H61.25C61.8136 40.8342 62.3653 40.671 62.838 40.364C63.3107 40.0569 63.6841 39.6193 63.9129 39.1041C64.1432 38.5892 64.2189 38.0185 64.1309 37.4613C64.0429 36.9042 63.7949 36.3846 63.417 35.9658L37.167 6.7991C36.0616 5.56827 33.9383 5.56827 32.8329 6.7991L6.58288 35.9658C6.20573 36.3848 5.95809 36.9041 5.86994 37.4609C5.78179 38.0178 5.85689 38.5882 6.08617 39.1032C6.31545 39.6182 6.68907 40.0558 7.16182 40.3629C7.63458 40.67 8.18621 40.8335 8.74996 40.8337ZM26.1012 39.912C26.1916 40.1891 28.4725 46.667 35 46.667C41.6179 46.667 43.8725 39.9966 43.8958 39.9266L49.4375 41.7379C49.2945 42.1783 45.8004 52.5004 35 52.5004C24.1995 52.5004 20.7054 42.1783 20.5625 41.7408L26.1012 39.912Z" fill="#77D586"/>
</svg>
