<svg width="70" height="70" viewBox="0 0 70 70" fill="none" xmlns="http://www.w3.org/2000/svg">
<path d="M57.7412 39.0894C51.797 36.2311 42.2332 34.4111 33.5328 34.4111C28.2012 34.4111 24.9257 25.1857 24.0128 19.1424L27.4603 13.2886C28.2333 11.9762 29.3354 10.8883 30.6577 10.1324C31.9801 9.37658 33.4768 8.979 34.9999 8.979C36.523 8.979 38.0198 9.37658 39.3421 10.1324C40.6644 10.8883 41.7666 11.9762 42.5395 13.2886L57.7412 39.0894ZM62.6207 47.3698L63.0291 48.0582C63.8123 49.3874 64.2302 50.9002 64.2403 52.443C64.2504 53.9858 63.8524 55.5039 63.0866 56.8433C62.3208 58.1827 61.2145 59.2958 59.8798 60.0697C58.5451 60.8437 57.0294 61.251 55.4866 61.2503H14.5103C12.9677 61.2504 11.4525 60.8428 10.1182 60.0686C8.78388 59.2945 7.67797 58.1813 6.91252 56.842C6.14707 55.5027 5.74931 53.9848 5.75953 52.4423C5.76976 50.8997 6.18761 49.3872 6.97075 48.0582L20.1453 25.7048C21.3616 33.7548 26.3987 40.2444 33.5328 40.2444C41.5449 40.2444 53.1037 41.8078 62.6207 47.3698Z" fill="#77D586"/>
</svg>
