<svg width="70" height="70" viewBox="0 0 70 70" fill="none" xmlns="http://www.w3.org/2000/svg">
<path d="M47.8333 47.8334C57.7499 37.9167 57.7499 21.875 47.8333 12.25L12.2499 47.8334C21.8749 57.75 37.9166 57.75 47.8333 47.8334ZM46.6666 20.4167C48.4166 20.4167 49.5833 21.5834 49.5833 23.3334C49.5833 25.0834 48.4166 26.25 46.6666 26.25C44.9166 26.25 43.7499 25.0834 43.7499 23.3334C43.7499 21.5834 44.9166 20.4167 46.6666 20.4167ZM46.6666 32.0834C48.4166 32.0834 49.5833 33.25 49.5833 35C49.5833 36.75 48.4166 37.9167 46.6666 37.9167C44.9166 37.9167 43.7499 36.75 43.7499 35C43.7499 33.25 44.9166 32.0834 46.6666 32.0834ZM34.9999 32.0834C36.7499 32.0834 37.9166 33.25 37.9166 35C37.9166 36.75 36.7499 37.9167 34.9999 37.9167C33.2499 37.9167 32.0833 36.75 32.0833 35C32.0833 33.25 33.2499 32.0834 34.9999 32.0834ZM34.9999 43.75C36.7499 43.75 37.9166 44.9167 37.9166 46.6667C37.9166 48.4167 36.7499 49.5834 34.9999 49.5834C33.2499 49.5834 32.0833 48.4167 32.0833 46.6667C32.0833 44.9167 33.2499 43.75 34.9999 43.75ZM23.3333 49.5834C21.5833 49.5834 20.4166 48.4167 20.4166 46.6667C20.4166 44.9167 21.5833 43.75 23.3333 43.75C25.0833 43.75 26.2499 44.9167 26.2499 46.6667C26.2499 48.4167 25.0833 49.5834 23.3333 49.5834ZM54.2499 54.25C40.8333 67.6667 19.2499 67.6667 5.83325 54.25L9.91659 50.1667C20.9999 61.25 38.7916 61.25 49.8749 50.1667C60.9583 39.0834 60.9583 21.2917 49.8749 10.2084L54.2499 5.83337C67.3749 19.25 67.3749 40.8334 54.2499 54.25Z" fill="#77D486"/>
</svg>
