<svg width="70" height="69" viewBox="0 0 70 69" fill="none" xmlns="http://www.w3.org/2000/svg">
<g clip-path="url(#clip0)">
<path fill-rule="evenodd" clip-rule="evenodd" d="M63.1347 35C63.1347 35.6282 62.9103 36.1667 62.4616 36.6154C62.0129 37.0641 61.4744 37.2885 60.8462 37.2885H60.3077C57.077 37.2885 54.6988 38.9487 53.1731 42.2692C52.3654 44.2436 50.8398 46.4423 48.5962 48.8654L47.6539 49.6731L46.1731 63.1346H42.2693L39.0385 53.9808L36.75 54.25C35.7629 54.4295 34.5065 54.5192 32.9808 54.5192C30.3783 54.5192 27.5962 54.0705 24.6347 53.1731L21.8077 51.9615L18.0385 63.1346H14.1347L11.4424 39.9808V35.9423C11.4424 32.0833 12.609 28.718 14.9424 25.8462C16.0193 25.4872 16.6924 24.9038 16.9616 24.0962V23.5577C18.1283 22.391 20.1475 21.0449 23.0193 19.5192C25.3526 22.2115 28.2244 23.5577 31.6347 23.5577C35.8526 23.5577 39.0834 21.8526 41.327 18.4423H41.5962C42.8526 19.0705 44.6924 18.5769 47.1154 16.9615C47.2949 16.8718 47.5641 16.6699 47.9231 16.3558C48.2821 16.0417 48.5962 15.8397 48.8654 15.75V24.3654L49.6731 25.3077C50.2116 25.8462 50.7052 26.2949 51.1539 26.6538L51.8943 27.3942L52.5 28.1346C54.1154 30.6474 56.2244 31.9038 58.827 31.9038H63.1347V35ZM45.0962 27.8654C45.6347 27.3269 45.9039 26.6538 45.9039 25.8462C45.9039 25.0385 45.6347 24.3654 45.0962 23.8269C44.5577 23.2885 43.8847 23.0192 43.077 23.0192C42.2693 23.0192 41.5962 23.2885 41.0577 23.8269C40.5193 24.3654 40.25 25.0385 40.25 25.8462C40.25 26.6538 40.5193 27.3269 41.0577 27.8654C41.5962 28.4038 42.2693 28.6731 43.077 28.6731C43.8847 28.6731 44.5577 28.4038 45.0962 27.8654Z" fill="#77D486"/>
<path fill-rule="evenodd" clip-rule="evenodd" d="M58.827 25.8462H63.1347C64.75 25.8462 66.1186 26.4071 67.2404 27.5288C68.3622 28.6506 69.0129 30.0192 69.1924 31.6346V34.7308C69.1924 36.8846 68.3847 38.7692 66.7693 40.3846C65.1539 42 63.2693 42.8077 61.1154 42.8077H60.577C59.6795 42.8077 59.0962 43.1667 58.827 43.8846C57.8398 46.6667 56.0449 49.359 53.4424 51.9615L52.2308 63.4039C52.1411 64.8397 51.5353 66.0737 50.4135 67.1058C49.2917 68.1378 48.0129 68.6538 46.577 68.6538H42.5385C39.9359 68.6538 38.0962 67.3974 37.0193 64.8846L35.2693 60.0385C31.7693 60.3077 28.5385 59.9936 25.577 59.0962L23.5577 64.8846C23.1988 66.141 22.4808 67.1282 21.4039 67.8462C20.327 68.5641 19.2052 68.9231 18.0385 68.9231H14.1347C12.6988 68.9231 11.4199 68.4295 10.2981 67.4423C9.17633 66.4551 8.52569 65.2436 8.3462 63.8077L5.78851 40.25V35.9423C5.78851 31.6346 6.9103 27.7756 9.15389 24.3654L4.30774 22.75L0.807739 19.25C-0.358927 17.9038 -0.358927 16.5577 0.807739 15.2115C2.24364 13.9551 3.58979 13.9551 4.8462 15.2115L7.13466 17.5L12.9231 19.5192C15.4359 17.0064 17.9039 15.3013 20.327 14.4038C20.1475 13.7756 20.0577 12.8782 20.0577 11.7115C20.0577 8.39103 21.202 5.60897 23.4904 3.36538C25.7789 1.12179 28.4936 0 31.6347 0C34.8654 0 37.625 1.16667 39.9135 3.5C42.202 5.83333 43.3462 8.57051 43.3462 11.7115V12.6538L43.6154 12.3846C46.1283 9.8718 48.8206 8.61539 51.6924 8.61539H54.5193V21.8077L54.7885 22.0769C55.7757 22.7949 56.6731 23.7821 57.4808 25.0385C57.75 25.5769 58.1988 25.8462 58.827 25.8462ZM36.1443 7.53846C34.9327 6.37179 33.5193 5.78846 31.9039 5.78846C30.1988 5.78846 28.7629 6.37179 27.5962 7.53846C26.4295 8.70513 25.8462 10.0962 25.8462 11.7115C25.8462 13.3269 26.4295 14.6955 27.5962 15.8173C28.7629 16.9391 30.1988 17.5897 31.9039 17.7692C33.609 17.7692 35.0449 17.1859 36.2116 16.0192C37.3783 14.8526 37.9616 13.4167 37.9616 11.7115C37.9616 10.0962 37.3558 8.70513 36.1443 7.53846ZM62.4616 36.6154C62.9103 36.1667 63.1347 35.6282 63.1347 35V31.9038H58.827C56.2244 31.9038 54.1154 30.6474 52.5 28.1346L51.8943 27.3942L51.1539 26.6538C50.7052 26.2949 50.2116 25.8462 49.6731 25.3077L48.8654 24.3654V15.75C48.5962 15.8397 48.2821 16.0417 47.9231 16.3558C47.5641 16.6699 47.2949 16.8718 47.1154 16.9615C44.6924 18.5769 42.8526 19.0705 41.5962 18.4423H41.327C39.0834 21.8526 35.8526 23.5577 31.6347 23.5577C28.2244 23.5577 25.3526 22.2115 23.0193 19.5192C20.1475 21.0449 18.1283 22.391 16.9616 23.5577V24.0962C16.6924 24.9038 16.0193 25.4872 14.9424 25.8462C12.609 28.718 11.4424 32.0833 11.4424 35.9423V39.9808L14.1347 63.1346H18.0385L21.8077 51.9615L24.6347 53.1731C27.5962 54.0705 30.3783 54.5192 32.9808 54.5192C34.5065 54.5192 35.7629 54.4295 36.75 54.25L39.0385 53.9808L42.2693 63.1346H46.1731L47.6539 49.6731L48.5962 48.8654C50.8398 46.4423 52.3654 44.2436 53.1731 42.2692C54.6988 38.9487 57.077 37.2885 60.3077 37.2885H60.8462C61.4744 37.2885 62.0129 37.0641 62.4616 36.6154Z" fill="#77D486"/>
</g>
<defs>
<clipPath id="clip0">
<rect width="70" height="68.9231" fill="white"/>
</clipPath>
</defs>
</svg>
