<svg width="70" height="70" viewBox="0 0 70 70" fill="none" xmlns="http://www.w3.org/2000/svg">
<path d="M9.25058 22.2495C15.3651 16.9995 20.1951 12.8485 33.3026 20.2545C39.5991 23.8105 44.6776 25.1545 48.9021 25.1475C56.3046 25.1475 61.1031 21.0315 65.2506 17.472C65.9625 16.8527 66.4052 15.9805 66.4849 15.0403C66.5646 14.1001 66.275 13.1658 65.6776 12.4355C65.3861 12.0772 65.0258 11.7809 64.6178 11.5642C64.2099 11.3475 63.7626 11.2149 63.3025 11.1741C62.8424 11.1333 62.3788 11.1852 61.9391 11.3267C61.4994 11.4683 61.0925 11.6965 60.7426 11.998C54.6316 17.255 49.7981 21.406 36.6906 13.993C19.3726 4.21753 11.2596 11.1825 4.74258 16.7825C4.03121 17.4023 3.58914 18.2748 3.51009 19.215C3.43103 20.1551 3.72119 21.0892 4.31908 21.819C4.61071 22.1768 4.97114 22.4724 5.37904 22.6884C5.78695 22.9044 6.23403 23.0364 6.69384 23.0765C7.15366 23.1166 7.61685 23.0641 8.05601 22.9221C8.49517 22.78 8.90137 22.5513 9.25058 22.2495ZM60.7426 29.8725C54.6316 35.1225 49.7981 39.2805 36.6906 31.8675C19.3726 22.085 11.2596 29.0535 4.74258 34.65C4.03121 35.2698 3.58914 36.1423 3.51009 37.0825C3.43103 38.0226 3.72119 38.9567 4.31908 39.6865C4.6102 40.0448 4.97025 40.341 5.3779 40.5576C5.78555 40.7743 6.23252 40.9069 6.69235 40.9477C7.15218 40.9885 7.61552 40.9366 8.05494 40.7951C8.49436 40.6537 8.90093 40.4254 9.25058 40.124C15.3651 34.8705 20.1951 30.7195 33.3026 38.122C39.5991 41.685 44.6776 43.022 48.9021 43.022C56.3046 43.022 61.1031 38.906 65.2506 35.3395C65.963 34.7213 66.4062 33.8496 66.486 32.9097C66.5657 31.9698 66.2757 31.0359 65.6776 30.3065C65.3862 29.948 65.0257 29.6516 64.6177 29.435C64.2096 29.2184 63.7621 29.0859 63.3019 29.0454C62.8417 29.005 62.378 29.0573 61.9383 29.1994C61.4987 29.3415 61.0921 29.5704 60.7426 29.8725ZM60.7426 47.7435C54.6316 53.0005 49.7981 57.1515 36.6906 49.7455C19.3726 39.963 11.2596 46.928 4.74258 52.528C4.03121 53.1478 3.58914 54.0203 3.51009 54.9605C3.43103 55.9006 3.72119 56.8347 4.31908 57.5645C4.61042 57.9227 4.97074 58.2187 5.37865 58.435C5.78656 58.6512 6.23376 58.7834 6.69371 58.8235C7.15366 58.8637 7.61699 58.811 8.05621 58.6687C8.49542 58.5264 8.90158 58.2973 9.25058 57.995C15.3651 52.745 20.1951 48.5975 33.3026 56C39.5991 59.556 44.6776 60.9 48.9021 60.9C56.3046 60.9 61.1031 56.777 65.2506 53.2175C65.9625 52.5982 66.4052 51.726 66.4849 50.7858C66.5646 49.8456 66.275 48.9114 65.6776 48.181C65.3858 47.8231 65.0254 47.5272 64.6174 47.3108C64.2095 47.0944 63.7624 46.9619 63.3024 46.9211C62.8424 46.8803 62.3789 46.9321 61.9393 47.0734C61.4996 47.2146 61.0927 47.4425 60.7426 47.7435Z" fill="#77D486"/>
</svg>
