<svg width="70" height="70" viewBox="0 0 70 70" fill="none" xmlns="http://www.w3.org/2000/svg">
<path d="M57.0186 32.0741C55.6915 29.0872 53.7622 26.4063 51.3516 24.1991L49.3623 22.3739C49.2948 22.3137 49.2135 22.2709 49.1255 22.2494C49.0376 22.2279 48.9457 22.2283 48.858 22.2505C48.7703 22.2728 48.6893 22.3163 48.6223 22.3771C48.5553 22.438 48.5042 22.5143 48.4736 22.5995L47.585 25.1493C47.0312 26.7489 46.0127 28.3827 44.5703 29.9892C44.4746 30.0917 44.3652 30.1191 44.29 30.1259C44.2148 30.1327 44.0986 30.1191 43.9961 30.0234C43.9004 29.9413 43.8525 29.8183 43.8594 29.6952C44.1123 25.58 42.8818 20.9384 40.1885 15.8866C37.96 11.6894 34.8633 8.41496 30.9941 6.13175L28.1709 4.47062C27.8018 4.25187 27.3301 4.53898 27.3506 4.96965L27.501 8.2509C27.6035 10.4931 27.3438 12.4755 26.7285 14.123C25.9766 16.1396 24.8965 18.0126 23.5156 19.6943C22.5546 20.8629 21.4655 21.92 20.2686 22.8456C17.3859 25.0616 15.0419 27.901 13.4121 31.1513C11.7863 34.4299 10.9395 38.0396 10.9375 41.6991C10.9375 44.9257 11.5732 48.0497 12.8311 50.996C14.0456 53.8327 15.7983 56.4072 17.9922 58.5771C20.207 60.7646 22.7773 62.4872 25.6416 63.6835C28.6084 64.9277 31.7529 65.5566 35 65.5566C38.2471 65.5566 41.3916 64.9277 44.3584 63.6903C47.2156 62.5011 49.8138 60.7666 52.0078 58.5839C54.2227 56.3964 55.959 53.8398 57.1689 51.0028C58.4249 48.0646 59.0691 44.9014 59.0625 41.706C59.0625 38.37 58.3789 35.1298 57.0186 32.0741Z" fill="#77D486"/>
</svg>
