<svg width="48" height="48" viewBox="0 0 48 48" fill="none" xmlns="http://www.w3.org/2000/svg">
<path d="M31.1999 24.0009C31.1999 25.9105 30.4413 27.7418 29.091 29.0921C27.7408 30.4424 25.9094 31.2009 23.9999 31.2009C22.0903 31.2009 20.259 30.4424 18.9087 29.0921C17.5584 27.7418 16.7999 25.9105 16.7999 24.0009C16.7999 23.5905 16.8431 23.1897 16.9175 22.8009H14.3999V32.3937C14.3999 33.0609 14.9399 33.6009 15.6071 33.6009H32.3951C32.7148 33.6003 33.0213 33.4728 33.2471 33.2465C33.473 33.0202 33.5999 32.7135 33.5999 32.3937V22.8009H31.0823C31.1567 23.1897 31.1999 23.5905 31.1999 24.0009ZM23.9999 28.8009C24.6304 28.8008 25.2547 28.6764 25.8371 28.435C26.4196 28.1936 26.9488 27.8398 27.3945 27.3939C27.8402 26.9479 28.1937 26.4185 28.4349 25.836C28.676 25.2534 28.8 24.629 28.7999 23.9985C28.7997 23.368 28.6754 22.7437 28.4339 22.1613C28.1925 21.5788 27.8387 21.0497 27.3928 20.6039C26.9468 20.1582 26.4175 19.8047 25.8349 19.5635C25.2523 19.3224 24.628 19.1984 23.9975 19.1985C22.7241 19.1989 21.503 19.705 20.6029 20.6056C19.7027 21.5062 19.1971 22.7276 19.1975 24.0009C19.1978 25.2743 19.7039 26.4954 20.6046 27.3955C21.5052 28.2957 22.7265 28.8013 23.9999 28.8009ZM29.7599 18.9609H32.6375C32.8286 18.9609 33.012 18.8852 33.1474 18.7502C33.2828 18.6152 33.3592 18.4321 33.3599 18.2409V15.3633C33.3599 15.1717 33.2838 14.988 33.1483 14.8525C33.0128 14.717 32.8291 14.6409 32.6375 14.6409H29.7599C29.5683 14.6409 29.3845 14.717 29.2491 14.8525C29.1136 14.988 29.0375 15.1717 29.0375 15.3633V18.2409C29.0399 18.6369 29.3639 18.9609 29.7599 18.9609ZM23.9999 0.960938C17.8893 0.960938 12.029 3.38836 7.70812 7.7092C3.38728 12.03 0.959864 17.8904 0.959864 24.0009C0.959864 30.1115 3.38728 35.9718 7.70812 40.2927C12.029 44.6135 17.8893 47.0409 23.9999 47.0409C27.0255 47.0409 30.0216 46.445 32.8169 45.2871C35.6122 44.1293 38.1521 42.4321 40.2916 40.2927C42.4311 38.1532 44.1282 35.6133 45.2861 32.818C46.4439 30.0226 47.0399 27.0266 47.0399 24.0009C47.0399 20.9753 46.4439 17.9793 45.2861 15.1839C44.1282 12.3886 42.4311 9.84866 40.2916 7.7092C38.1521 5.56974 35.6122 3.87262 32.8169 2.71475C30.0216 1.55688 27.0255 0.960938 23.9999 0.960938ZM35.9999 33.3345C35.9999 34.8009 34.7999 36.0009 33.3335 36.0009H14.6663C13.1999 36.0009 11.9999 34.8009 11.9999 33.3345V14.6673C11.9999 13.2009 13.1999 12.0009 14.6663 12.0009H33.3335C34.7999 12.0009 35.9999 13.2009 35.9999 14.6673V33.3345Z" fill="#77D586"/>
</svg>
