<svg width="91" height="51" viewBox="0 0 91 51" fill="none" xmlns="http://www.w3.org/2000/svg">
<path fill-rule="evenodd" clip-rule="evenodd" d="M47.9145 3.09845C47.9959 3.26529 48.2644 3.30289 48.4274 3.30623C49.433 3.32598 50.6677 2.9735 51.5821 2.55296C51.8477 2.43086 52.4272 2.13146 52.5696 1.84443C52.6019 1.77898 52.5877 1.75827 52.595 1.70258C52.3475 1.33749 51.5581 0.407388 51.2351 0.130356C51.2189 0.116552 48.3089 0.772717 48.1832 1.34582C48.1675 1.4177 48.1413 1.48362 48.1299 1.55526L48.0109 2.21119C47.989 2.36946 47.8905 2.97541 47.9145 3.09845Z" fill="#2B2A29"/>
<path fill-rule="evenodd" clip-rule="evenodd" d="M52.9303 5.61979C52.8375 5.19187 52.9079 4.88057 53.0603 4.59592C53.21 4.31698 53.367 3.92143 53.6329 3.79124C53.8554 4.26296 54.0808 4.42408 53.7947 4.93983C53.6355 5.22733 53.3501 5.52507 52.9303 5.61979ZM52.6809 1.54547C52.7685 1.6797 52.8827 1.7968 52.9724 1.92722C53.2319 2.30445 52.4919 2.74023 52.2318 2.88993C51.2948 3.42924 49.8247 3.85431 48.7551 3.86193C48.549 3.86335 48.1753 3.83741 47.9992 3.72365C47.8128 3.60346 47.8538 3.49707 47.8642 3.34142C47.8721 3.22694 47.8773 3.07272 47.894 2.96966C47.5977 3.11746 47.0389 3.65867 46.9965 4.05209C46.9863 4.14657 46.9974 4.23202 47.0277 4.30913C46.6935 4.48691 46.3689 4.65518 46.0631 4.83415C45.3 5.28064 45.2055 5.37347 44.2143 5.50341L41.7848 5.79544C41.5301 4.10802 39.8379 4.2294 38.755 5.20782C37.9063 5.97489 37.5046 7.12395 37.0952 8.41154C36.9129 8.98488 36.7118 9.68079 36.555 10.2844C36.316 11.204 36.2348 11.3101 36.6016 12.2947C37.1481 13.763 37.7309 14.8768 36.7484 16.0666L36.7784 16.315C36.916 16.4809 37.6364 18.324 37.7788 18.6853C38.0567 19.3912 37.9068 19.3979 38.7593 19.2843C39.2546 19.2182 39.8979 19.1891 40.293 19.0268C40.3556 18.6853 40.0559 17.9922 39.7313 17.7561C39.1951 17.3665 39.1135 18.2514 38.7274 16.8563C39.7653 16.2039 40.9349 14.0488 41.3276 12.8264L47.2716 14.0238C47.1479 14.7933 46.8242 15.4263 47.1898 16.2401C47.3226 16.5357 47.5206 16.8972 47.6693 17.1866C47.7952 17.432 47.9756 17.9392 48.2272 18.0643C48.5811 18.2167 50.3899 17.9275 50.7229 17.7464C50.7609 17.3125 50.531 17.105 50.3309 16.8079C49.9277 16.2094 49.9351 16.5138 49.5931 16.3762C49.1813 16.2106 49.5959 15.2812 49.832 14.5969C50.04 13.9929 50.169 13.2439 50.5275 12.8476L51.7301 11.4282C52.3551 10.7506 52.7028 10.1189 52.8325 9.41685C52.9175 8.95703 52.6933 8.42938 52.5669 7.74966C52.5231 7.29174 53.1814 6.39353 53.2621 6.22193C53.3425 6.05105 53.4273 6.10912 53.5989 6.0382C53.9892 5.87755 54.4081 5.24709 54.508 4.83344C54.7246 3.93785 54.2693 3.60584 53.59 3.16197C53.6196 3.13603 53.6486 3.11008 53.6767 3.08367C54.0042 2.77617 54.3752 2.26685 53.9318 1.87272C53.67 1.63996 52.9396 1.50287 52.6809 1.54547ZM47.4961 4.70373C47.9242 4.867 48.5878 4.89699 49.3377 4.8125C49.5912 5.19163 49.9187 5.47081 50.512 5.28112C50.8752 5.16474 51.042 4.8263 51.0979 4.44027C51.7198 4.24891 52.3263 3.9964 52.8458 3.69128C52.4726 4.50643 52.2277 4.386 52.2858 5.73427C51.7337 5.70881 51.5449 5.45986 51.2098 5.80972C51.2638 6.38806 51.9628 6.37449 52.5198 6.33689C52.525 6.5925 51.9835 7.13038 51.9186 7.54331C51.8141 8.20471 52.2899 8.88706 52.2173 9.34902C52.073 10.2634 51.6113 10.9103 50.8323 11.4882C50.8949 11.1069 51.0689 11.0069 50.8469 10.7061C50.4073 10.5076 50.3444 10.8244 50.2511 11.179L49.4657 13.697C48.5106 16.4745 48.6356 15.9654 49.1692 17.0348C49.6683 17.1292 49.6623 16.8603 49.8782 17.3194L48.5195 17.4653C48.1146 16.7273 47.5125 15.88 47.7131 14.9984C47.8183 14.5393 48.296 12.7964 48.0827 12.3761C47.4939 12.1974 47.4746 12.978 47.4394 13.4148L41.4835 12.1884C41.5025 11.5767 41.6296 10.8446 41.3776 10.2846L40.9127 10.3529C40.7999 10.8677 40.9575 11.6905 40.7714 12.449C40.3296 14.2499 39.3058 15.4773 38.0222 16.6901C38.0782 17.124 38.4587 18.0329 38.7124 18.2731C39.2627 18.4977 39.2208 17.9868 39.4912 18.5649L38.4635 18.6872C37.2406 15.7388 37.3642 16.753 37.7997 15.3906C38.2091 14.1107 37.4853 12.9778 37.0717 11.7916C36.7551 10.8841 38.1388 6.62487 39.1587 5.67811C39.652 5.21995 40.6505 4.76109 41.0748 5.53816C41.5925 6.48588 40.2092 6.89762 39.5899 6.67866C40.1559 6.3852 41.2026 6.36807 40.8113 5.47747C40.2204 5.38084 40.5031 5.55482 40.1188 5.82257C39.9024 5.97322 39.5721 5.99084 39.306 6.10674C38.7534 6.34784 38.8129 7.12039 39.306 7.29698C39.6797 7.4305 40.7933 7.27199 41.1374 7.07826C41.9326 6.63106 41.1069 6.50754 42.5145 6.34141C43.9346 6.17362 45.0316 6.16481 46.1449 5.50841C46.5826 5.25018 47.0401 4.9722 47.4961 4.70373ZM49.8839 4.70849C49.9632 4.6916 50.4663 4.59901 50.546 4.57997C50.4832 4.86295 50.1957 5.00266 49.8839 4.70849Z" fill="#2B2A29"/>
<path fill-rule="evenodd" clip-rule="evenodd" d="M53.5457 3.52072C53.297 3.53976 53.1202 3.74611 53.1506 3.98125C53.1811 4.21639 53.4077 4.39132 53.6564 4.37229C53.9053 4.35301 54.0822 4.14666 54.0515 3.91152C54.021 3.67661 53.7944 3.50144 53.5457 3.52072Z" fill="#2B2A29"/>
<path fill-rule="evenodd" clip-rule="evenodd" d="M0.318726 36.1817L90.6811 25.5033V36.0667L0.318726 46.7451V36.1817ZM10.8881 37.5212V37.505L8.96765 37.7318V37.7482C9.17828 37.862 9.34035 38.259 9.34035 38.9116V40.4947C9.16185 40.5483 8.98359 40.5776 8.86221 40.5921C7.93829 40.7011 7.52513 40.35 7.52513 39.5668V39.1262C7.52513 38.457 7.70339 38.0362 7.89784 37.8746V37.8582L5.9855 38.0843V38.1004C6.18828 38.2152 6.4151 38.58 6.4151 39.2574V39.5756C6.4151 40.8893 6.94179 41.6428 8.54615 41.4534C8.74059 41.4303 9.06475 41.3758 9.34035 41.2942V42.1348C9.34035 42.8038 9.10521 43.2315 8.90267 43.3941V43.4102L10.8881 43.1756V43.1594C10.6772 43.0456 10.4504 42.6808 10.4504 42.0034V38.7804C10.4504 38.1114 10.6853 37.6837 10.8881 37.5212ZM20.6573 40.4547C20.3088 40.9936 19.7417 41.3299 19.0284 41.4141L18.1452 41.5186V39.6827L18.8908 39.5946C19.3444 39.5408 19.6362 39.6534 19.774 40.0042L19.7902 40.0023L20.0251 38.6038C19.6605 38.6959 19.4337 38.7309 18.7611 38.8102L18.1452 38.883V37.4469L19.215 37.3205C19.8469 37.2458 20.2924 37.3972 20.4871 37.7739L20.5033 37.7639L20.3655 36.3197C20.1872 36.3816 19.8307 36.4483 19.5065 36.4863L16.5977 36.8302V36.8464C16.8083 36.9604 17.0351 37.325 17.0351 38.0024V41.2254C17.0351 41.8944 16.8 42.3221 16.5977 42.4846V42.5011L19.458 42.1631C19.9361 42.1065 20.1467 42.0979 20.4464 42.1115L20.6734 40.4609L20.6573 40.4547ZM28.4249 35.4325L26.2126 35.694V35.7102C26.4235 35.824 26.6503 36.1888 26.6503 36.8333V40.0892C26.6503 40.7582 26.4152 41.1859 26.2126 41.3484V41.3649L28.198 41.1302V41.1138C27.9872 41 27.7604 40.6352 27.7604 39.9906V39.3133L28.4249 39.2348C29.7132 39.0827 30.4669 38.3653 30.4669 37.0352C30.4669 35.8604 29.7132 35.2804 28.4249 35.4325ZM28.2385 38.4491L27.7604 38.4974V36.3188L28.2385 36.2624C28.9758 36.1753 29.3162 36.4778 29.3162 37.2284C29.3162 37.93 28.9839 38.3692 28.2385 38.4491ZM40.5683 34.0138V33.9976L38.6479 34.2244V34.2408C38.8585 34.3546 39.0206 34.7515 39.0206 35.4044V36.9873C38.8424 37.0409 38.6641 37.0701 38.5427 37.0847C37.6188 37.1937 37.2056 36.8426 37.2056 36.0594V35.6188C37.2056 34.9498 37.3839 34.5288 37.5783 34.3672V34.3508L35.666 34.5769V34.5933C35.8685 34.708 36.0954 35.0726 36.0954 35.75V36.0682C36.0954 37.3819 36.6221 38.1357 38.2264 37.946C38.4211 37.9231 38.7453 37.8684 39.0206 37.787V38.6274C39.0206 39.2964 38.7857 39.7241 38.5832 39.8866V39.9028L40.5683 39.6684V39.652C40.3577 39.5382 40.1309 39.1734 40.1309 38.496V35.273C40.1309 34.604 40.3658 34.1765 40.5683 34.0138ZM46.3022 38.9908L47.9147 38.8002C48.0037 38.5696 48.1577 38.2575 48.32 37.9772L49.5435 35.8418C49.8513 35.3075 50.135 34.6949 50.3618 34.0071L50.3944 34.003C50.2404 34.6987 50.1673 35.3356 50.1673 35.8414V37.3101C50.1673 37.9791 49.9324 38.4068 49.7299 38.5695V38.5857L51.7232 38.3501V38.3339C51.5125 38.2202 51.2855 37.8553 51.2855 37.178V33.9143C51.2855 33.3921 51.5773 32.8109 51.7636 32.6909V32.6745L49.9729 32.8863C49.9567 33.0513 49.9082 33.2283 49.6407 33.7089L48.4737 35.7968C48.255 36.1898 47.9309 36.7993 47.6879 37.5297L47.6555 37.5335C47.785 36.7919 47.8338 36.264 47.8338 35.799V34.3629C47.8338 33.6939 48.0687 33.2662 48.255 33.1055V33.0891L46.278 33.3228V33.3393C46.4886 33.453 46.7154 33.8179 46.7154 34.495V37.718C46.7154 38.387 46.4886 38.8137 46.3022 38.9746V38.9908ZM56.829 37.7468L58.6199 37.5352V37.519C58.5064 37.4343 58.4578 37.1137 58.6359 36.5135L59.1952 34.6197C59.3653 34.0366 59.5355 33.4616 59.6086 32.8818L59.6409 32.8778C59.7299 33.4385 59.892 33.9742 60.0622 34.5171L60.6213 36.2788C60.7995 36.8369 60.751 37.1611 60.6374 37.2805V37.2967L62.5093 37.0756V37.0592C62.2825 36.8902 61.926 36.4511 61.7153 35.8314L60.6455 32.7021C60.4835 32.2316 60.5403 31.8332 60.751 31.629V31.6126L58.5388 31.8739V31.8903C58.7577 32.0602 58.8386 32.4587 58.6766 32.9673L57.6232 36.315C57.4125 36.9845 57.056 37.5078 56.829 37.7306V37.7468ZM67.3033 36.5089L69.0941 36.2974V36.2812C68.9805 36.1964 68.932 35.8759 69.1102 35.2756L69.6693 33.3819C69.8397 32.7988 70.0096 32.2238 70.0827 31.644L70.1151 31.6402C70.2043 32.2007 70.3662 32.7364 70.5363 33.2793L71.0954 35.041C71.2739 35.5991 71.2253 35.9232 71.1118 36.0427V36.0589L72.9835 35.8378V35.8214C72.7566 35.6524 72.4001 35.2133 72.1895 34.5935L71.1197 31.4643C70.9578 30.9938 71.0145 30.5954 71.2253 30.3912V30.3747L69.0129 30.6361V30.6525C69.2319 30.8224 69.3128 31.2208 69.1507 31.7297L68.0973 35.0771C67.8867 35.7466 67.5302 36.27 67.3033 36.4928V36.5089ZM80.3826 31.2346L79.621 31.3246V30.6065C79.621 29.9375 79.8559 29.5098 80.0585 29.3473V29.3309L78.0733 29.5655V29.582C78.284 29.6957 78.5108 30.0606 78.5108 30.7051V33.9607C78.5108 34.6297 78.2759 35.0574 78.0733 35.2202V35.2364L80.4555 34.9548C81.5172 34.8294 82.4004 34.0642 82.4004 32.7831C82.4004 31.6245 81.5657 31.0949 80.3826 31.2346ZM80.0909 34.182L79.621 34.2375V32.1324L80.0909 32.0769C80.877 31.9841 81.2416 32.2754 81.2416 32.9854C81.2416 33.6706 80.877 34.0892 80.0909 34.182Z" fill="#2B2A29"/>
<path fill-rule="evenodd" clip-rule="evenodd" d="M0.318726 34.4819L9.93916 33.3623V27.7939L0.318726 34.4819Z" fill="#2B2A29"/>
<path fill-rule="evenodd" clip-rule="evenodd" d="M90.6814 37.8307L81.0612 38.9503V44.5188L90.6814 37.8307Z" fill="#2B2A29"/>
<path d="M0.268066 34.8831L90.6302 24.205L90.7321 25.0661L0.369693 35.7442L0.268066 34.8831Z" fill="#2B2A29"/>
<path d="M0.268066 47.2196L90.6302 36.5415L90.7321 37.4026L0.369693 48.0809L0.268066 47.2196Z" fill="#2B2A29"/>
<path d="M30.4338 28.8593C30.4338 28.8981 30.4267 28.9248 30.4138 28.941C30.401 28.9591 30.3734 28.9698 30.3315 28.9748L30.1025 29.0017C30.0385 29.0093 29.9816 28.9938 29.9343 28.9553C29.8867 28.9167 29.8626 28.8641 29.8626 28.7996V25.9995L29.2036 26.0774V28.872C29.2036 28.9403 29.1781 29.0005 29.1286 29.0505C29.0794 29.1007 29.0206 29.1295 28.9566 29.1371L28.7259 29.1645C28.6838 29.1695 28.6545 29.1654 28.6417 29.1504C28.6288 29.1371 28.6215 29.1104 28.6215 29.0681V22.7596C28.6215 22.7173 28.6288 22.6887 28.6417 22.6725C28.6545 22.6544 28.6838 22.6435 28.7259 22.6385L28.9566 22.6114C29.0334 22.6023 29.0939 22.6173 29.1377 22.658C29.1817 22.699 29.2036 22.7589 29.2036 22.8346V25.5907L29.8626 25.5128V22.7401C29.8626 22.6721 29.8883 22.6118 29.9378 22.5619C29.9873 22.5117 30.044 22.4829 30.108 22.4752L30.337 22.4481C30.3791 22.4431 30.4046 22.4476 30.4174 22.4626C30.4286 22.4759 30.4338 22.5031 30.4338 22.5454V28.8593ZM36.0544 22.4786C36.0544 22.3753 36.0728 22.2737 36.1092 22.1735C36.1458 22.0733 36.2008 21.9802 36.2777 21.8974C36.3546 21.8126 36.4498 21.7405 36.5652 21.6808C36.6785 21.6213 36.8141 21.5832 36.9715 21.5644C37.129 21.5458 37.2644 21.552 37.3815 21.5844C37.4989 21.6165 37.5941 21.666 37.6671 21.7332C37.7423 21.7979 37.7973 21.8781 37.8337 21.9695C37.8704 22.0611 37.8887 22.1585 37.8887 22.2617V27.3754C37.8887 27.464 37.8723 27.5582 37.8392 27.6579C37.8083 27.7574 37.7533 27.8507 37.68 27.9385C37.605 28.0247 37.5098 28.1006 37.3927 28.1641C37.2754 28.2277 37.1364 28.2701 36.9715 28.2896C36.8068 28.3089 36.6678 28.2996 36.5504 28.2636C36.4333 28.2277 36.3381 28.1763 36.2667 28.1073C36.1934 28.0404 36.1404 27.9599 36.1056 27.8683C36.0709 27.7764 36.0544 27.6846 36.0544 27.5922V22.4786ZM36.6366 27.5106C36.6366 27.5899 36.6623 27.657 36.7135 27.7117C36.7646 27.7645 36.8544 27.7836 36.9807 27.7686C37.1016 27.7543 37.1895 27.7143 37.2406 27.6494C37.2918 27.5825 37.3175 27.5094 37.3175 27.4302V22.3422C37.3175 22.2629 37.2901 22.1961 37.2371 22.1416C37.184 22.0887 37.0962 22.0697 36.9734 22.0842C36.8489 22.099 36.7611 22.1406 36.7116 22.2072C36.6623 22.2739 36.6366 22.347 36.6366 22.4226V27.5106ZM43.619 27.4045C43.5769 27.4095 43.5495 27.4052 43.5367 27.3902C43.5238 27.3771 43.5164 27.3483 43.5164 27.3078V20.9773C43.5164 20.9349 43.5238 20.9066 43.5367 20.8902C43.5495 20.8721 43.5769 20.8616 43.619 20.8566L44.4373 20.7597C44.6113 20.7393 44.7576 20.7478 44.875 20.7854C44.9901 20.8235 45.0818 20.879 45.1513 20.952C45.2191 21.0251 45.2684 21.1077 45.2979 21.2C45.3253 21.2926 45.3398 21.3811 45.3398 21.4642V23.1066C45.3398 23.2744 45.3253 23.4272 45.2979 23.5634C45.2684 23.6995 45.1972 23.8076 45.0837 23.8911C45.1403 23.9194 45.186 23.9601 45.2191 24.017C45.2539 24.0717 45.2793 24.1334 45.2979 24.2031C45.3143 24.2729 45.3253 24.3454 45.3307 24.4223C45.3362 24.497 45.3398 24.5706 45.3398 24.6387V26.3937C45.3398 26.4746 45.3253 26.5631 45.2979 26.6602C45.2684 26.7578 45.2191 26.8523 45.1477 26.9418C45.078 27.0294 44.9828 27.1086 44.8621 27.1764C44.7431 27.244 44.591 27.2895 44.408 27.3112L43.619 27.4045ZM44.0986 24.2617V26.8316L44.4282 26.7926C44.5491 26.7783 44.637 26.7366 44.69 26.6695C44.7431 26.6007 44.7686 26.5293 44.7686 26.452V24.7062C44.7686 24.6527 44.765 24.5961 44.7595 24.5358C44.754 24.4737 44.7412 24.4199 44.721 24.369C44.6991 24.32 44.6698 24.2809 44.6296 24.2507C44.5894 24.2203 44.5344 24.2103 44.4611 24.2191L44.0986 24.2617ZM44.0986 21.3105V23.764L44.4611 23.7212C44.5344 23.7126 44.5894 23.6895 44.6296 23.6498C44.6698 23.6098 44.6991 23.5641 44.721 23.5098C44.7412 23.4539 44.754 23.3972 44.7595 23.3339C44.765 23.2725 44.7686 23.2147 44.7686 23.1614V21.5299C44.7686 21.4542 44.7431 21.3873 44.69 21.3326C44.637 21.2762 44.5491 21.2572 44.4282 21.2714L44.0986 21.3105ZM53.8014 26.0574C53.8014 26.1533 53.7557 26.2066 53.6624 26.2178L53.3585 26.2535C53.2649 26.2647 53.2192 26.2221 53.2192 26.1262V19.98C53.2192 19.912 53.2449 19.8518 53.2944 19.8018C53.3437 19.7516 53.4023 19.7225 53.4665 19.7149L53.6971 19.6875C53.7393 19.6828 53.7685 19.6866 53.7814 19.698C53.7942 19.7094 53.8014 19.7361 53.8014 19.7787V26.0574ZM51.3136 19.9693C51.3776 19.9617 51.4361 19.977 51.4856 20.0153C51.5349 20.0538 51.5606 20.1079 51.5606 20.1762V22.2296L51.8902 22.1908C52.1758 22.157 52.3991 22.2063 52.5602 22.3403C52.7213 22.4724 52.8018 22.6564 52.8018 22.8905V25.5119C52.8018 25.7461 52.7232 25.9488 52.5638 26.1188C52.4065 26.2906 52.1849 26.3922 51.8993 26.426L51.081 26.5227C51.0389 26.5277 51.0115 26.5236 50.9987 26.5084C50.9858 26.4953 50.9785 26.4684 50.9785 26.426V20.1178C50.9785 20.0752 50.9858 20.0467 50.9987 20.0305C51.0115 20.0124 51.0408 20.0015 51.083 19.9967L51.3136 19.9693ZM51.8902 25.9091C52.0111 25.8948 52.099 25.8529 52.152 25.7861C52.2051 25.717 52.2306 25.6459 52.2306 25.5683V22.9524C52.2306 22.8805 52.2068 22.8151 52.1594 22.7599C52.1118 22.7049 52.033 22.6828 51.9231 22.6959L51.5606 22.7385V25.9481L51.8902 25.9091ZM59.4256 19.114C59.4256 19.0754 59.4329 19.0485 59.4439 19.0326C59.4548 19.0147 59.4822 19.004 59.5227 18.9992L59.7533 18.9721C59.8209 18.964 59.8813 18.979 59.9327 19.0171C59.9839 19.0554 60.0058 19.1099 59.9984 19.1789L59.9125 23.3592L60.6101 19.3539C60.641 19.1935 60.6796 19.069 60.7272 18.9804C60.7748 18.8919 60.8352 18.8441 60.9085 18.8355L61.1373 18.8084C61.1832 18.8031 61.2106 18.8072 61.2234 18.8224C61.2344 18.8357 61.2398 18.861 61.2398 18.8998V25.2191C61.2398 25.2522 61.2325 25.2808 61.2196 25.2989C61.2068 25.317 61.1794 25.3293 61.1373 25.3343L60.914 25.3607C60.8407 25.3693 60.7803 25.3562 60.7308 25.3198C60.6815 25.2832 60.6577 25.2251 60.6613 25.1492L60.7529 20.9499L60.0444 25.0137C60.0334 25.074 60.0206 25.1308 60.0077 25.1858C59.993 25.241 59.9749 25.291 59.9527 25.336C59.9289 25.3812 59.9016 25.4176 59.8704 25.4471C59.8375 25.475 59.7954 25.4928 59.7459 25.4988L59.53 25.5243C59.4877 25.5293 59.4603 25.5233 59.4458 25.5085C59.4329 25.4933 59.4256 25.4667 59.4256 25.4333V19.114ZM60.989 17.0895C60.989 17.5724 60.9359 17.9309 60.8333 18.1624C60.7308 18.3938 60.5551 18.5232 60.3081 18.5525C60.0479 18.5832 59.8723 18.4935 59.7788 18.2833C59.6855 18.0749 59.6379 17.7286 59.6379 17.2492C59.6379 17.229 59.6433 17.2116 59.6545 17.1938C59.6674 17.1757 59.6836 17.1662 59.7074 17.1636L59.8613 17.1452C59.8923 17.1417 59.9235 17.149 59.9546 17.1655C59.9877 17.1838 60.0077 17.2183 60.0151 17.2709C60.0351 17.6003 60.0646 17.844 60.1065 18.0013C60.1486 18.1584 60.2164 18.2315 60.3081 18.2207C60.4599 18.2027 60.5587 17.8666 60.6046 17.2142C60.612 17.1543 60.632 17.1114 60.6651 17.0855C60.6979 17.0574 60.7308 17.0426 60.7657 17.0384L60.9195 17.0203C60.9378 17.0181 60.9542 17.0234 60.9688 17.0348C60.9816 17.0479 60.989 17.0655 60.989 17.0895Z" fill="#2B2A29"/>
<path d="M16.1135 48.4127L14.9725 48.5481V50.5311L15.1344 50.5119V48.6843L15.9514 48.5874V50.415L16.1135 50.3957V48.4127ZM18.5211 48.0854C18.3064 48.1109 18.126 48.2347 18.028 48.4246L18.0092 48.1878L17.8735 48.204V50.8696L18.0318 50.8508V49.9521C18.137 50.1063 18.3217 50.1753 18.5099 50.153C18.8638 50.1111 19.1011 49.829 19.1011 49.393V48.7181C19.1011 48.2706 18.8524 48.0462 18.5211 48.0854ZM18.9393 49.4123C18.9393 49.7648 18.7622 49.9716 18.4759 50.0054C18.2162 50.0363 18.0318 49.8345 18.0318 49.5351V48.8678C18.0318 48.4886 18.2462 48.2697 18.4873 48.2411C18.7584 48.209 18.9393 48.3734 18.9393 48.7373V49.4123ZM21.3735 47.747C21.0194 47.7889 20.7938 48.0357 20.7747 48.3563L20.9404 48.3368C20.948 48.1083 21.1175 47.9329 21.3697 47.9029C21.637 47.8712 21.7839 48.0245 21.7839 48.3277V48.5781L21.3774 48.6262C20.9518 48.6766 20.7145 48.917 20.7145 49.2885C20.7145 49.6715 20.9556 49.8628 21.3019 49.8219C21.5392 49.7936 21.701 49.6684 21.7877 49.5104L21.8027 49.7207L21.9457 49.7038V48.3046C21.9457 47.9143 21.731 47.7046 21.3735 47.747ZM21.3245 49.6598C21.0572 49.6917 20.8802 49.5572 20.8802 49.2728C20.8802 48.9922 21.0496 48.8166 21.3735 48.7783L21.7839 48.7297V49.1467C21.7839 49.4273 21.6182 49.6251 21.3245 49.6598ZM24.5497 48.337C24.7079 48.2235 24.7981 48.0574 24.7981 47.8943C24.7981 47.5833 24.5873 47.4114 24.226 47.4543L23.7062 47.5159V49.4951L24.2674 49.4285C24.6739 49.3802 24.8959 49.1493 24.8959 48.7928C24.8959 48.5691 24.7605 48.3918 24.5497 48.337ZM23.868 47.652L24.2222 47.6102C24.4894 47.5783 24.6325 47.698 24.6325 47.9141C24.6325 48.1226 24.4744 48.2892 24.2407 48.3168L23.868 48.3611V47.652ZM24.2636 49.2735L23.868 49.3204V48.5165L24.2748 48.4682C24.5646 48.4339 24.7303 48.566 24.7303 48.8123C24.7303 49.0739 24.5723 49.2369 24.2636 49.2735ZM26.5286 49.1603L26.6905 49.141L27.3721 47.7215C27.4325 47.5933 27.5039 47.4369 27.5416 47.3377L27.5489 47.3405C27.5416 47.4816 27.538 47.6566 27.538 47.831V49.0405L27.6998 49.0213V47.0382L27.5304 47.0582L26.8337 48.5212C26.7885 48.6212 26.7209 48.7659 26.6905 48.8451L26.6831 48.8423C26.6905 48.724 26.6905 48.5645 26.6905 48.4358V47.158L26.5286 47.1772V49.1603ZM29.2266 48.863C29.5279 48.8273 29.6448 48.5177 29.6824 48.0431C29.7012 47.821 29.7197 47.4205 29.7312 46.9528L30.3788 46.8759V48.7035L30.5406 48.6843V46.7012L29.5693 46.8164C29.5617 47.3331 29.5469 47.7027 29.5203 48.0357C29.4903 48.4032 29.4263 48.68 29.2266 48.7035V48.863ZM32.8432 47.1487L32.4591 47.1941V46.4737L32.2973 46.493V48.476L32.8432 48.4113C33.2012 48.3687 33.4647 48.0683 33.4647 47.7044C33.4647 47.3403 33.2012 47.1061 32.8432 47.1487ZM32.8432 48.252L32.4591 48.2975V47.3534L32.8432 47.3079C33.1143 47.2755 33.3028 47.4469 33.3028 47.7237C33.3028 48.0041 33.1143 48.2197 32.8432 48.252ZM36.0044 46.0534V46.9254L35.1873 47.0223V46.1503L35.0255 46.1695V48.1526L35.1873 48.1333V47.1777L36.0044 47.0809V48.0364L36.1664 48.0171V46.0341L36.0044 46.0534ZM38.4874 45.7171C38.1333 45.759 37.9076 46.0058 37.8886 46.3264L38.0543 46.3069C38.0619 46.0784 38.2313 45.903 38.4836 45.873C38.7509 45.8413 38.8977 45.9946 38.8977 46.2978V46.5482L38.4912 46.5963C38.0657 46.6467 37.8284 46.8871 37.8284 47.2586C37.8284 47.6416 38.0695 47.8329 38.4158 47.792C38.6531 47.7637 38.8149 47.6385 38.9015 47.4805L38.9165 47.6908L39.0596 47.6739V46.2747C39.0596 45.8844 38.8449 45.6747 38.4874 45.7171ZM38.4384 47.6299C38.1711 47.6618 37.994 47.5273 37.994 47.2429C37.994 46.9623 38.1635 46.7867 38.4874 46.7484L38.8977 46.6998V47.1168C38.8977 47.3974 38.7321 47.5952 38.4384 47.6299ZM41.2872 45.4268C40.9219 45.4701 40.6849 45.7521 40.6849 46.1086C40.6849 46.4233 40.8543 46.646 41.1104 46.661L40.617 47.4893L40.8091 47.4664L41.2872 46.6477L41.645 46.6053V47.3674L41.8068 47.3481V45.3651L41.2872 45.4268ZM41.645 46.4537L41.2608 46.4992C41.0012 46.5301 40.8467 46.3661 40.8467 46.0893C40.8467 45.8164 41.0126 45.6186 41.2872 45.586L41.645 45.5436V46.4537ZM45.0129 44.9431C44.6588 44.985 44.4331 45.2318 44.4141 45.5524L44.5797 45.5329C44.5874 45.3044 44.7568 45.129 45.0091 45.099C45.2764 45.0674 45.4232 45.2206 45.4232 45.5239V45.7742L45.0167 45.8223C44.5912 45.8728 44.3539 46.1131 44.3539 46.4847C44.3539 46.8676 44.595 47.059 44.9413 47.018C45.1785 46.9897 45.3404 46.8645 45.427 46.7065L45.442 46.9169L45.5851 46.9V45.5008C45.5851 45.1105 45.3704 44.9008 45.0129 44.9431ZM44.9639 46.8559C44.6966 46.8878 44.5195 46.7534 44.5195 46.469C44.5195 46.1884 44.689 46.0127 45.0129 45.9744L45.4232 45.9258V46.3428C45.4232 46.6234 45.2576 46.8212 44.9639 46.8559ZM47.1161 46.7412C47.4174 46.7055 47.5343 46.3959 47.5719 45.9213C47.5907 45.6993 47.6092 45.2987 47.6207 44.831L48.2683 44.7542V46.5818L48.4301 46.5625V44.5795L47.4588 44.6947C47.4512 45.2114 47.4365 45.581 47.4098 45.9139C47.3798 46.2814 47.3158 46.5582 47.1161 46.5818V46.7412ZM50.7325 45.0267L50.3484 45.0721V44.3517L50.1865 44.371V46.354L50.7325 46.2893C51.0905 46.2467 51.3539 45.9463 51.3539 45.5824C51.3539 45.2183 51.0905 44.9841 50.7325 45.0267ZM50.7325 46.13L50.3484 46.1755V45.2314L50.7325 45.1859C51.0036 45.1535 51.1921 45.3249 51.1921 45.6017C51.1921 45.882 51.0036 46.0977 50.7325 46.13ZM53.6904 43.9554L52.5382 44.092V44.2437L53.0316 44.1851V46.0165L53.1934 45.9972V44.1658L53.6904 44.107V43.9554ZM56.196 45.046C56.1661 45.3527 56.0154 45.5412 55.7105 45.5774C55.4318 45.6105 55.2624 45.4486 55.2624 45.1188V44.842L56.3317 44.7151V44.2715C56.3317 43.8505 56.087 43.6294 55.7105 43.6741C55.3378 43.7184 55.1005 43.9966 55.1005 44.4176V45.1381C55.1005 45.555 55.334 45.7814 55.7067 45.7371C56.1058 45.6897 56.3281 45.4246 56.3619 45.0262L56.196 45.046ZM55.7105 43.8333C55.9966 43.7993 56.1696 43.9609 56.1696 44.2908V44.5826L55.2624 44.6901V44.3984C55.2624 44.0685 55.4318 43.8664 55.7105 43.8333ZM58.6908 43.3207C58.4761 43.3462 58.2957 43.4699 58.1976 43.6598L58.1788 43.423L58.0432 43.4392V46.1048L58.2014 46.086V45.1873C58.3066 45.3415 58.4913 45.4106 58.6796 45.3882C59.0335 45.3463 59.2708 45.0643 59.2708 44.6283V43.9533C59.2708 43.5059 59.0221 43.2814 58.6908 43.3207ZM59.1089 44.6475C59.1089 45 58.9319 45.2068 58.6455 45.2406C58.3859 45.2716 58.2014 45.0697 58.2014 44.7703V44.103C58.2014 43.7239 58.4159 43.5049 58.657 43.4763C58.928 43.4442 59.1089 43.6087 59.1089 43.9726V44.6475ZM61.9611 42.9744V43.8464L61.1441 43.9433V43.0713L60.9822 43.0905V45.0736L61.1441 45.0543V44.0987L61.9611 44.0018V44.9574L62.1232 44.9381V42.9551L61.9611 42.9744ZM64.4444 42.6381C64.0903 42.68 63.8646 42.9268 63.8456 43.2474L64.0113 43.2279C64.0189 42.9994 64.1883 42.824 64.4406 42.794C64.7079 42.7623 64.8547 42.9156 64.8547 43.2188V43.4692L64.4482 43.5173C64.0227 43.5677 63.7854 43.8081 63.7854 44.1796C63.7854 44.5626 64.0265 44.7539 64.3728 44.713C64.6101 44.6847 64.7719 44.5595 64.8585 44.4014L64.8735 44.6118L65.0166 44.5949V43.1957C65.0166 42.8054 64.8019 42.5957 64.4444 42.6381ZM64.3954 44.5509C64.1281 44.5828 63.951 44.4483 63.951 44.1639C63.951 43.8833 64.1205 43.7077 64.4444 43.6694L64.8547 43.6208V44.0378C64.8547 44.3184 64.6891 44.5162 64.3954 44.5509ZM67.6845 42.2956L66.5324 42.4322V42.5838L67.0258 42.5253V44.3567L67.1876 44.3374V42.506L67.6845 42.4472V42.2956ZM69.2415 44.094L69.4034 44.0747L70.085 42.6552C70.1455 42.527 70.2169 42.3706 70.2545 42.2713L70.2618 42.2742C70.2545 42.4153 70.2509 42.5903 70.2509 42.7647V43.9742L70.4127 43.955V41.9719L70.2433 41.9919L69.5467 43.4549C69.5014 43.5549 69.4338 43.6996 69.4034 43.7788L69.396 43.776C69.4034 43.6577 69.4034 43.4982 69.4034 43.3695V42.0917L69.2415 42.1109V44.094ZM73.0124 42.5886C73.1707 42.4751 73.2609 42.309 73.2609 42.1459C73.2609 41.8349 73.05 41.663 72.6887 41.7059L72.1689 41.7675V43.7467L72.7301 43.6801C73.1366 43.6318 73.3587 43.4009 73.3587 43.0444C73.3587 42.8207 73.2233 42.6433 73.0124 42.5886ZM72.3308 41.9036L72.6849 41.8618C72.9522 41.8299 73.0952 41.9496 73.0952 42.1657C73.0952 42.3742 72.9372 42.5408 72.7035 42.5684L72.3308 42.6126V41.9036ZM72.7263 43.5251L72.3308 43.572V42.7681L72.7375 42.7197C73.0274 42.6855 73.1931 42.8176 73.1931 43.0639C73.1931 43.3254 73.035 43.4885 72.7263 43.5251ZM75.5523 41.3205C75.1982 41.3624 74.9726 41.6092 74.9535 41.9298L75.1192 41.9103C75.1268 41.6818 75.2963 41.5064 75.5485 41.4764C75.8158 41.4448 75.9627 41.598 75.9627 41.9013V42.1516L75.5562 42.1997C75.1306 42.2502 74.8933 42.4905 74.8933 42.8621C74.8933 43.245 75.1344 43.4364 75.4807 43.3954C75.718 43.3671 75.8798 43.2419 75.9665 43.0839L75.9815 43.2943L76.1245 43.2774V41.8782C76.1245 41.4879 75.9098 41.2782 75.5523 41.3205ZM75.5033 43.2333C75.236 43.2652 75.059 43.1308 75.059 42.8464C75.059 42.5658 75.2284 42.3901 75.5523 42.3518L75.9627 42.3032V42.7202C75.9627 43.0008 75.797 43.1986 75.5033 43.2333Z" fill="#2B2A29"/>
</svg>
