<svg width="48" height="48" viewBox="0 0 48 48" fill="none" xmlns="http://www.w3.org/2000/svg">
<g clip-path="url(#clip0)">
<path d="M40.3929 36.2345C39.9224 33.0089 37.9109 31.4069 36.1364 29.9936C34.7155 28.8623 33.4886 27.8851 33.1578 26.2307C32.8298 24.5903 32.5915 21.8422 32.3391 18.9328C31.9399 14.3305 31.4872 9.11407 30.5145 5.79178C28.8662 0.162456 24.5553 0 24.0693 0C24.0413 0 24.018 0.000223768 23.9997 0.000671304C23.9816 0.000223768 23.9583 0 23.9303 0C23.4443 0 19.1336 0.162456 17.4856 5.79156C16.5126 9.11384 16.0602 14.3301 15.6608 18.9323C15.4084 21.842 15.1698 24.5901 14.842 26.2307C14.5113 27.8853 13.2843 28.8623 11.8634 29.9938C10.0887 31.4072 8.07727 33.0091 7.60691 36.2347C6.71833 42.3279 10.2514 43.554 11.9576 44.1463C12.3407 44.2792 12.7733 44.3412 13.319 44.3412C13.5985 44.3412 13.8849 44.3255 14.162 44.3105C14.4385 44.2955 14.7245 44.2799 15.0024 44.2799C15.1045 44.2799 15.2045 44.2825 15.3032 44.2872C15.0154 43.7318 14.6384 43.1939 14.151 42.8173C12.6444 41.653 10.9733 41.6871 10.9567 41.6891C10.4611 41.7099 10.0458 41.3259 10.0252 40.832C10.0046 40.3382 10.3883 39.9211 10.8822 39.9005C10.9751 39.896 13.2036 39.8231 15.2457 41.4011C16.64 42.4785 17.3431 44.3195 17.6595 45.4432C19.6951 47.8769 23.2499 48.0004 23.9417 48.0004L23.9997 47.9998L24.0577 48.0004C24.7498 48.0004 28.3041 47.8769 30.3402 45.4435C30.6566 44.3197 31.3596 42.4785 32.7544 41.4011C34.7958 39.8233 37.0225 39.8967 37.1179 39.9005C37.6117 39.9211 37.9955 40.3382 37.9747 40.832C37.9541 41.3261 37.5406 41.709 37.0431 41.6891C37.0333 41.6893 35.3573 41.6517 33.8491 42.8173C33.3617 43.1939 32.9846 43.7318 32.6969 44.2872C32.7956 44.2825 32.8956 44.2799 32.9976 44.2799C33.2756 44.2799 33.5617 44.2953 33.8381 44.3105C34.1151 44.3255 34.4016 44.3412 34.681 44.3412C35.2266 44.3412 35.6593 44.2792 36.0509 44.1434C37.7487 43.5537 41.2815 42.3277 40.3929 36.2345ZM21.8412 7.92698C21.8258 7.99925 20.2887 15.2359 20.0703 21.4209C19.8434 27.8463 18.3522 31.5674 18.2889 31.7227C18.1473 32.0695 17.813 32.2796 17.4599 32.2796C17.3473 32.2796 17.2327 32.2582 17.122 32.213C16.6644 32.0263 16.4448 31.5038 16.6317 31.046C16.6456 31.0118 18.0669 27.4357 18.2815 21.3577C18.5055 15.0119 20.0263 7.85358 20.0909 7.55194C20.1943 7.06838 20.67 6.76092 21.1536 6.8643C21.6369 6.96791 21.9448 7.44364 21.8412 7.92698Z" fill="#77D586"/>
<path d="M21.8412 7.92698C21.8258 7.99925 20.2887 15.2359 20.0703 21.4209C19.8434 27.8463 18.3522 31.5674 18.2889 31.7227C18.1473 32.0695 17.813 32.2796 17.4599 32.2796C17.3473 32.2796 17.2327 32.2582 17.122 32.213C16.6644 32.0263 16.4448 31.5038 16.6317 31.046C16.6456 31.0118 18.0669 27.4357 18.2815 21.3577C18.5055 15.0119 20.0263 7.85358 20.0909 7.55194C20.1943 7.06838 20.67 6.76092 21.1536 6.8643C21.6369 6.96791 21.9448 7.44364 21.8412 7.92698Z" fill="#77D586"/>
</g>
<defs>
<clipPath id="clip0">
<rect width="48" height="48" fill="white"/>
</clipPath>
</defs>
</svg>
