<svg width="48" height="48" viewBox="0 0 48 48" fill="none" xmlns="http://www.w3.org/2000/svg">
<path d="M42 6.00001V10C42 13.713 40.525 17.274 37.8995 19.8995C35.274 22.525 31.713 24 28 24H26V26H36V40C36 41.0609 35.5786 42.0783 34.8284 42.8284C34.0783 43.5786 33.0609 44 32 44H16C14.9391 44 13.9217 43.5786 13.1716 42.8284C12.4214 42.0783 12 41.0609 12 40V26H22V20C22 16.287 23.475 12.726 26.1005 10.1005C28.726 7.475 32.287 6.00001 36 6.00001H42ZM11 4C13.4 3.99806 15.7652 4.57277 17.8967 5.67575C20.0282 6.77873 21.8635 8.37769 23.248 10.338C21.1347 13.1152 19.9934 16.5102 20 20V22H19C15.0218 22 11.2064 20.4197 8.3934 17.6066C5.58035 14.7936 4 10.9783 4 7.00001V4H11Z" fill="#77D586"/>
</svg>
