<svg width="70" height="70" viewBox="0 0 70 70" fill="none" xmlns="http://www.w3.org/2000/svg">
<path d="M61.25 11.6665H5.83331V17.4998H12.5416L22.1141 43.8228C22.7314 45.5083 23.8504 46.9642 25.3206 47.9942C26.7907 49.0241 28.5412 49.5787 30.3362 49.5832H55.4166V43.7498H30.3362C29.1141 43.7498 28.0116 42.9769 27.5946 41.8307L26.1712 37.9165H53.2175C55.8133 37.9165 58.1175 36.1723 58.8262 33.6844L64.0558 15.3853C64.1781 14.9511 64.1984 14.4946 64.1151 14.0513C64.0317 13.608 63.847 13.19 63.5753 12.8299C63.3036 12.4699 62.9524 12.1775 62.549 11.9757C62.1456 11.7739 61.701 11.668 61.25 11.6665ZM53.2175 32.0832H24.0508L18.7483 17.4998H57.3854L53.2175 32.0832Z" fill="white"/>
<path d="M30.625 61.25C33.0412 61.25 35 59.2912 35 56.875C35 54.4588 33.0412 52.5 30.625 52.5C28.2088 52.5 26.25 54.4588 26.25 56.875C26.25 59.2912 28.2088 61.25 30.625 61.25Z" fill="white"/>
<path d="M48.125 61.25C50.5412 61.25 52.5 59.2912 52.5 56.875C52.5 54.4588 50.5412 52.5 48.125 52.5C45.7088 52.5 43.75 54.4588 43.75 56.875C43.75 59.2912 45.7088 61.25 48.125 61.25Z" fill="white"/>
</svg>
