<svg width="70" height="70" viewBox="0 0 70 70" fill="none" xmlns="http://www.w3.org/2000/svg">
<path d="M48.3179 64.1639H48.3996C49.9396 64.1639 51.395 63.5572 52.4975 62.4547L60.4075 54.5447C60.6786 54.2741 60.8937 53.9527 61.0404 53.5989C61.1871 53.245 61.2627 52.8657 61.2627 52.4827C61.2627 52.0996 61.1871 51.7203 61.0404 51.3665C60.8937 51.0126 60.6786 50.6912 60.4075 50.4206L48.7408 38.7539C48.4702 38.4828 48.1488 38.2678 47.7949 38.121C47.4411 37.9743 47.0618 37.8987 46.6787 37.8987C46.2957 37.8987 45.9164 37.9743 45.5626 38.121C45.2087 38.2678 44.8873 38.4828 44.6167 38.7539L39.9675 43.4031C37.8121 42.7614 33.79 41.3031 31.2408 38.7539C28.6917 36.2047 27.2333 32.1827 26.5917 30.0272L31.2408 25.3781C31.5119 25.1074 31.727 24.786 31.8737 24.4322C32.0205 24.0783 32.096 23.6991 32.096 23.316C32.096 22.9329 32.0205 22.5536 31.8737 22.1998C31.727 21.846 31.5119 21.5245 31.2408 21.2539L19.5742 9.58725C19.0166 9.06094 18.2788 8.76776 17.5121 8.76776C16.7453 8.76776 16.0076 9.06094 15.45 9.58725L7.54291 17.4972C6.43458 18.6056 5.81041 20.1281 5.83375 21.6827C5.90083 25.836 7.00041 40.2618 18.3696 51.631C29.7387 63.0002 44.1646 64.0968 48.3179 64.1639ZM17.515 15.7735L25.0575 23.316L21.2862 27.0872C20.9431 27.4295 20.6909 27.8522 20.5529 28.3168C20.4148 28.7814 20.3952 29.2731 20.4958 29.7472C20.5658 30.0827 22.2779 38.0364 27.1196 42.8781C31.9612 47.7197 39.915 49.4318 40.2504 49.5018C40.7245 49.603 41.2164 49.5836 41.6811 49.4455C42.1458 49.3075 42.5685 49.0551 42.9104 48.7114L46.6817 44.9402L54.2242 52.4827L48.3733 58.3306C44.7333 58.2693 32.2792 57.2922 22.4937 47.5039C12.6762 37.6864 11.7254 25.1885 11.6671 21.6214L17.515 15.7735ZM58.3308 32.0806H64.1642C64.1642 17.1181 52.8679 5.8335 37.885 5.8335V11.6668C49.7325 11.6668 58.3308 20.2506 58.3308 32.0806Z" fill="white"/>
<path d="M37.9138 23.3333C44.0475 23.3333 46.6638 25.9496 46.6638 32.0833H52.4971C52.4971 22.6771 47.32 17.5 37.9138 17.5V23.3333Z" fill="white"/>
</svg>
