<svg width="48" height="48" viewBox="0 0 48 48" fill="none" xmlns="http://www.w3.org/2000/svg">
<path d="M23.9999 0.960938C11.2751 0.960938 0.959862 11.2761 0.959862 24.0009C0.959862 36.7257 11.2751 47.0409 23.9999 47.0409C36.7247 47.0409 47.0399 36.7257 47.0399 24.0009C47.0399 11.2761 36.7247 0.960938 23.9999 0.960938ZM32.8607 26.9553C32.8607 26.9553 34.8983 28.9665 35.3999 29.9001C35.4143 29.9193 35.4215 29.9385 35.4263 29.9481C35.6303 30.2913 35.6783 30.5577 35.5775 30.7569C35.4095 31.0881 34.8335 31.2513 34.6367 31.2657H31.0367C30.7871 31.2657 30.2639 31.2009 29.6303 30.7641C29.1431 30.4233 28.6631 29.8641 28.1951 29.3193C27.4967 28.5081 26.8919 27.8073 26.2823 27.8073C26.2048 27.8072 26.1279 27.8194 26.0543 27.8433C25.5935 27.9921 25.0031 28.6497 25.0031 30.4017C25.0031 30.9489 24.5711 31.2633 24.2663 31.2633H22.6175C22.0559 31.2633 19.1303 31.0665 16.5383 28.3329C13.3655 24.9849 10.5095 18.2697 10.4855 18.2073C10.3055 17.7729 10.6775 17.5401 11.0831 17.5401H14.7191C15.2039 17.5401 15.3623 17.8353 15.4727 18.0969C15.6023 18.4017 16.0775 19.6137 16.8575 20.9769C18.1223 23.1993 18.8975 24.1017 19.5191 24.1017C19.6356 24.1004 19.7501 24.0707 19.8527 24.0153C20.6639 23.5641 20.5127 20.6721 20.4767 20.0721C20.4767 19.9593 20.4743 18.7785 20.0591 18.2121C19.7615 17.8017 19.2551 17.6457 18.9479 17.5881C19.0722 17.4166 19.236 17.2774 19.4255 17.1825C19.9823 16.9041 20.9855 16.8633 21.9815 16.8633H22.5359C23.6159 16.8777 23.8943 16.9473 24.2855 17.0457C25.0775 17.2353 25.0943 17.7465 25.0247 19.4961C25.0031 19.9929 24.9815 20.5545 24.9815 21.2169C24.9815 21.3609 24.9743 21.5145 24.9743 21.6777C24.9503 22.5681 24.9215 23.5785 25.5503 23.9937C25.6323 24.0452 25.7271 24.0726 25.8239 24.0729C26.0423 24.0729 26.6999 24.0729 28.4807 21.0177C29.0299 20.0344 29.5071 19.0125 29.9087 17.9601C29.9447 17.8977 30.0503 17.7057 30.1751 17.6313C30.2672 17.5844 30.3693 17.5605 30.4727 17.5617H34.7471C35.2127 17.5617 35.5319 17.6313 35.5919 17.8113C35.6975 18.0969 35.5727 18.9681 33.6215 21.6105L32.7503 22.7601C30.9815 25.0785 30.9815 25.1961 32.8607 26.9553Z" fill="#77D586"/>
</svg>
